<svg width="44" height="44" fill="none" xmlns="http://www.w3.org/2000/svg"><path d="M22 31.625c-.275 0-.55 0-.688-.137l-6.875-4.125c-.412-.276-.687-.688-.687-1.238v-8.25c0-.55.275-.962.688-1.238l6.874-4.125c.138-.137.413-.137.688-.137.275 0 .55 0 .688.137l6.875 4.125c.412.276.687.688.687 1.238v8.25c0 .55-.275.962-.688 1.238l-6.875 4.125c-.137.137-.412.137-.687.137ZM16.5 25.3l5.5 3.3 5.5-3.3v-6.738l-5.5-3.3-5.5 3.3V25.3Z" fill="#fff"/><path d="M22 42.625c-.275 0-.413 0-.688-.138l-16.5-9.625c-.412-.275-.687-.687-.687-1.237v-19.25c0-.55.275-.963.688-1.238l16.5-9.625c.274-.137.412-.137.687-.137.275 0 .413 0 .688.137l16.5 9.626-1.376 2.337L22 4.4 6.875 13.2v17.738L22 39.737l15.125-8.8V20.624h2.75v11c0 .55-.275.962-.688 1.237l-16.5 9.625c-.274.138-.412.138-.687.138Z" fill="#fff"/></svg>