<svg width="44" height="44" viewBox="0 0 44 44" fill="none" xmlns="http://www.w3.org/2000/svg">
<path d="M22 31.625C21.725 31.625 21.45 31.625 21.3125 31.4875L14.4375 27.3625C14.025 27.0875 13.75 26.675 13.75 26.125V17.875C13.75 17.325 14.025 16.9125 14.4375 16.6375L21.3125 12.5125C21.45 12.375 21.725 12.375 22 12.375C22.275 12.375 22.55 12.375 22.6875 12.5125L29.5625 16.6375C29.975 16.9125 30.25 17.325 30.25 17.875V26.125C30.25 26.675 29.975 27.0875 29.5625 27.3625L22.6875 31.4875C22.55 31.625 22.275 31.625 22 31.625ZM16.5 25.3L22 28.6L27.5 25.3V18.5625L22 15.2625L16.5 18.5625V25.3Z" fill="white"></path>
<path d="M22 42.625C21.725 42.625 21.5875 42.625 21.3125 42.4875L4.8125 32.8625C4.4 32.5875 4.125 32.175 4.125 31.625V12.375C4.125 11.825 4.4 11.4125 4.8125 11.1375L21.3125 1.5125C21.5875 1.375 21.725 1.375 22 1.375C22.275 1.375 22.4125 1.375 22.6875 1.5125L39.1875 11.1375L37.8125 13.475L22 4.4L6.875 13.2V30.9375L22 39.7375L37.125 30.9375V20.625H39.875V31.625C39.875 32.175 39.6 32.5875 39.1875 32.8625L22.6875 42.4875C22.4125 42.625 22.275 42.625 22 42.625Z" fill="white"></path>
</svg>
