<svg width="44" height="44" fill="none" xmlns="http://www.w3.org/2000/svg"><g clip-path="url('#clip0_109_33')" fill="#fff"><path d="M27.5 8.25c0 3.61-.836 6.897-2.2 9.35a5.476 5.476 0 0 0-4.081-1.045c-.77-2.7-2.503-5.61-5.055-8.165-.433-.434-.883-.85-1.35-1.248A16.434 16.434 0 0 1 22 5.5c1.9 0 3.726.322 5.426.913.05.602.074 1.216.074 1.837Zm0 13.75c0 .2-.011.401-.033.597 2.8-.053 6.05-.971 9.16-2.767.536-.31 1.059-.64 1.568-.992a16.511 16.511 0 0 0-6.958-10.514 24.863 24.863 0 0 1-.398 1.76c-.935 3.49-2.596 6.452-4.554 8.468A5.472 5.472 0 0 1 27.5 22Zm-.377 2.002a5.52 5.52 0 0 1-2.942 3.05c1.444 2.392 3.863 4.744 6.971 6.537.55.319 1.105.61 1.664.871a16.461 16.461 0 0 0 5.645-11.305 24.4 24.4 0 0 1-1.762.547c-3.476.932-6.856.98-9.576.303v-.003ZM22 27.5a5.477 5.477 0 0 1-3.3-1.1c-1.358 2.448-2.189 5.726-2.189 9.325 0 .633.027 1.257.074 1.865 1.741.604 3.572.912 5.415.91 2.585 0 5.032-.594 7.213-1.656a22.959 22.959 0 0 1-1.367-1.259c-2.543-2.547-4.276-5.448-5.049-8.14A5.816 5.816 0 0 1 22 27.5ZM16.5 22c0-.22.014-.44.038-.657-2.805.047-6.063.965-9.184 2.769a23.02 23.02 0 0 0-1.562.987 16.509 16.509 0 0 0 6.943 10.558c.112-.604.248-1.203.407-1.796.935-3.484 2.585-6.44 4.538-8.456A5.466 5.466 0 0 1 16.5 22Zm-9.204-1.738c3.484-.935 6.87-.976 9.592-.294a5.518 5.518 0 0 1 2.942-3.025c-1.44-2.404-3.866-4.766-6.987-6.567a22.96 22.96 0 0 0-1.634-.858 16.464 16.464 0 0 0-5.665 11.291c.567-.203 1.15-.385 1.752-.547ZM22 24.75a2.75 2.75 0 1 0 0-5.5 2.75 2.75 0 0 0 0 5.5Z"/><path d="M22 41.25a19.25 19.25 0 1 1 0-38.5 19.25 19.25 0 0 1 0 38.5ZM22 44a22 22 0 1 0 0-44 22 22 0 0 0 0 44Z"/></g><defs><clipPath id="clip0_109_33"><path fill="#fff" d="M0 0h44v44H0z"/></clipPath></defs></svg>