<svg width="44" height="44" viewBox="0 0 44 44" fill="none" xmlns="http://www.w3.org/2000/svg">
<g clip-path="url('#clip0_109_33')">
<path d="M27.5 8.25002C27.5 11.8608 26.664 15.147 25.3 17.6C24.7225 17.165 24.0645 16.8487 23.364 16.6693C22.6636 16.49 21.9345 16.4511 21.219 16.555C20.449 13.8545 18.7165 10.945 16.1645 8.39027C15.7312 7.95628 15.2808 7.53978 14.8143 7.14177C17.0543 6.0575 19.5113 5.49613 22 5.50002C23.9003 5.50002 25.7263 5.82177 27.4258 6.41302C27.4753 7.01527 27.5 7.62852 27.5 8.25002ZM27.5 22C27.5 22.2008 27.489 22.4015 27.467 22.5968C30.2665 22.5445 33.517 21.626 36.6273 19.8303C37.1629 19.5205 37.6858 19.1893 38.1948 18.8375C37.3574 14.5508 34.8557 10.7705 31.2373 8.32427C31.1257 8.91558 30.9927 9.50263 30.8385 10.0843C29.9035 13.574 28.2425 16.5358 26.2845 18.5515C27.0463 19.4948 27.5 20.6965 27.5 22ZM27.1233 24.002C26.8579 24.6792 26.4614 25.2972 25.9564 25.8206C25.4514 26.3439 24.848 26.7624 24.1808 27.0518C25.6245 29.4443 28.0445 31.7955 31.152 33.5885C31.702 33.9075 32.2575 34.199 32.8158 34.4603C34.4551 33.0406 35.7978 31.3111 36.7666 29.371C37.7355 27.4308 38.3115 25.3184 38.4615 23.155C37.8895 23.3558 37.3038 23.54 36.6988 23.7023C33.2228 24.6345 29.843 24.6813 27.1233 24.0048V24.002ZM22 27.5C20.7625 27.5 19.6185 27.0903 18.7 26.4C17.3415 28.8475 16.511 32.1255 16.511 35.7253C16.511 36.3578 16.5385 36.982 16.5853 37.5898C18.3265 38.194 20.1569 38.5017 22 38.5C24.585 38.5 27.0325 37.906 29.2133 36.8445C28.7409 36.4433 28.2849 36.0231 27.8465 35.585C25.3028 33.0385 23.5703 30.1373 22.7975 27.445C22.539 27.4808 22.2723 27.5 22 27.5ZM16.5 22C16.5 21.78 16.5138 21.56 16.5385 21.3428C13.7335 21.3895 10.4748 22.308 7.35351 24.112C6.81983 24.4201 6.29874 24.7494 5.79151 25.0993C6.19894 27.2288 7.02187 29.2571 8.21329 31.0686C9.4047 32.88 10.9413 34.439 12.7353 35.6565C12.8469 35.0527 12.9827 34.4537 13.1423 33.8608C14.0773 30.3765 15.7273 27.4203 17.6798 25.4045C16.9131 24.4356 16.4972 23.2356 16.5 22ZM7.29576 20.262C10.78 19.327 14.1653 19.2858 16.8878 19.9678C17.4268 18.6093 18.491 17.5203 19.8303 16.9428C18.3893 14.5393 15.9638 12.177 12.8425 10.3758C12.3097 10.068 11.7648 9.7818 11.209 9.51777C9.56785 10.9342 8.22259 12.6609 7.25044 14.5986C6.27828 16.5363 5.69838 18.6469 5.54401 20.8093C6.11051 20.6058 6.69351 20.4243 7.29576 20.262ZM22 24.75C22.7294 24.75 23.4288 24.4603 23.9445 23.9446C24.4603 23.4288 24.75 22.7294 24.75 22C24.75 21.2707 24.4603 20.5712 23.9445 20.0555C23.4288 19.5398 22.7294 19.25 22 19.25C21.2707 19.25 20.5712 19.5398 20.0555 20.0555C19.5397 20.5712 19.25 21.2707 19.25 22C19.25 22.7294 19.5397 23.4288 20.0555 23.9446C20.5712 24.4603 21.2707 24.75 22 24.75Z" fill="white"></path>
<path d="M22 41.25C16.8946 41.25 11.9983 39.2219 8.38819 35.6118C4.77812 32.0017 2.75 27.1054 2.75 22C2.75 16.8946 4.77812 11.9983 8.38819 8.38819C11.9983 4.77812 16.8946 2.75 22 2.75C27.1054 2.75 32.0017 4.77812 35.6118 8.38819C39.2219 11.9983 41.25 16.8946 41.25 22C41.25 27.1054 39.2219 32.0017 35.6118 35.6118C32.0017 39.2219 27.1054 41.25 22 41.25ZM22 44C27.8348 44 33.4305 41.6822 37.5564 37.5564C41.6822 33.4305 44 27.8348 44 22C44 16.1652 41.6822 10.5695 37.5564 6.44365C33.4305 2.31785 27.8348 0 22 0C16.1652 0 10.5695 2.31785 6.44365 6.44365C2.31785 10.5695 0 16.1652 0 22C0 27.8348 2.31785 33.4305 6.44365 37.5564C10.5695 41.6822 16.1652 44 22 44Z" fill="white"></path>
</g>
<defs>
<clipPath id="clip0_109_33">
<rect width="44" height="44" fill="white"></rect>
</clipPath>
</defs>
</svg>
