<svg width="44" height="44" viewBox="0 0 44 44" fill="none" xmlns="http://www.w3.org/2000/svg">
<path d="M39.2191 32.7429C38.5069 32.0416 29.876 28.7031 28.3099 28.0734C26.752 27.4546 26.1305 25.74 26.1305 25.74C26.1305 25.74 25.4292 26.1278 25.4292 25.0388C25.4292 23.9484 26.1305 25.74 26.8317 21.5353C26.8317 21.5353 28.7774 20.9894 28.391 16.4753H27.9235C27.9235 16.4753 29.0922 11.649 27.9235 10.0155C26.7506 8.38202 26.2914 7.29302 23.716 6.51202C21.1447 5.73239 22.0797 5.88777 20.2125 5.96752C18.3425 6.04589 16.786 7.05789 16.786 7.60102C16.786 7.60102 15.6172 7.67939 15.1525 8.14689C14.685 8.61439 13.9067 10.7924 13.9067 11.3369C13.9067 11.8814 14.2959 15.5444 14.685 16.3199L14.2216 16.4711C13.8325 20.9866 15.7781 21.5339 15.7781 21.5339C16.4794 25.7386 17.1806 23.947 17.1806 25.0374C17.1806 26.1264 16.4794 25.7386 16.4794 25.7386C16.4794 25.7386 15.8565 27.4519 14.3 28.072C12.7435 28.6949 4.10299 32.0416 3.40036 32.7415C2.69911 33.4565 2.77749 36.7235 2.77749 36.7235H39.8392C39.8392 36.7235 39.9259 33.4538 39.2164 32.7401L39.2191 32.7429ZM30.5085 35.8366H24.2357V34.1179H30.5085V35.8366Z" fill="white"></path>
</svg>
