<svg width="44" height="44" fill="none" xmlns="http://www.w3.org/2000/svg"><path d="M39.22 32.743c-.713-.701-9.344-4.04-10.91-4.67-1.558-.618-2.18-2.333-2.18-2.333s-.7.388-.7-.701c0-1.09.7.701 1.402-3.504 0 0 1.945-.546 1.559-5.06h-.467s1.168-4.826 0-6.46c-1.173-1.633-1.633-2.722-4.208-3.503-2.571-.78-1.636-.624-3.504-.544-1.87.078-3.426 1.09-3.426 1.633 0 0-1.169.078-1.634.546-.467.467-1.245 2.645-1.245 3.19 0 .544.389 4.207.778 4.983l-.463.151c-.39 4.516 1.556 5.063 1.556 5.063.701 4.205 1.403 2.413 1.403 3.503 0 1.09-.702.702-.702.702s-.622 1.713-2.179 2.333c-1.557.623-10.197 3.97-10.9 4.67-.7.715-.623 3.982-.623 3.982H39.84s.087-3.27-.623-3.984l.003.003Zm-8.711 3.094h-6.273v-1.72h6.273v1.72Z" fill="#fff"/></svg>