<svg width="44" height="44" viewBox="0 0 44 44" fill="none" xmlns="http://www.w3.org/2000/svg">
<path d="M33 14.6667H29.3333V12.8333C29.3333 11.8609 28.947 10.9282 28.2594 10.2406C27.5718 9.55296 26.6391 9.16666 25.6667 9.16666H7.33334C6.36088 9.16666 5.42825 9.55296 4.74061 10.2406C4.05298 10.9282 3.66667 11.8609 3.66667 12.8333V31.1667H7.33334C7.33334 31.8889 7.4756 32.6041 7.752 33.2714C8.0284 33.9387 8.43353 34.545 8.94425 35.0557C9.45497 35.5665 10.0613 35.9716 10.7286 36.248C11.3959 36.5244 12.1111 36.6667 12.8333 36.6667C13.5556 36.6667 14.2708 36.5244 14.9381 36.248C15.6054 35.9716 16.2117 35.5665 16.7224 35.0557C17.2331 34.545 17.6383 33.9387 17.9147 33.2714C18.1911 32.6041 18.3333 31.8889 18.3333 31.1667H25.6667C25.6667 32.6253 26.2461 34.0243 27.2776 35.0557C28.309 36.0872 29.708 36.6667 31.1667 36.6667C32.6254 36.6667 34.0243 36.0872 35.0558 35.0557C36.0872 34.0243 36.6667 32.6253 36.6667 31.1667H40.3333V22L33 14.6667ZM12.8333 33.9167C12.4721 33.9165 12.1144 33.8453 11.7807 33.7069C11.447 33.5685 11.1438 33.3658 10.8884 33.1103C10.6331 32.8548 10.4305 32.5514 10.2924 32.2176C10.1543 31.8838 10.0832 31.5261 10.0833 31.1648C10.0835 30.8036 10.1547 30.4459 10.2931 30.1122C10.4314 29.7785 10.6342 29.4753 10.8897 29.2199C11.1452 28.9645 11.4486 28.762 11.7824 28.6239C12.1162 28.4857 12.4739 28.4147 12.8352 28.4148C13.5648 28.4151 14.2644 28.7051 14.7801 29.2212C15.2958 29.7373 15.5854 30.4371 15.5852 31.1667C15.5849 31.8962 15.2949 32.5959 14.7788 33.1116C14.2627 33.6273 13.5629 33.9169 12.8333 33.9167ZM7.33334 25.6667V12.8333H25.6667V25.6667H7.33334ZM31.1667 33.9167C30.8054 33.9165 30.4477 33.8453 30.114 33.7069C29.7803 33.5685 29.4771 33.3658 29.2217 33.1103C28.9664 32.8548 28.7639 32.5514 28.6257 32.2176C28.4876 31.8838 28.4166 31.5261 28.4167 31.1648C28.4168 30.8036 28.4881 30.4459 28.6264 30.1122C28.7648 29.7785 28.9675 29.4753 29.223 29.2199C29.4786 28.9645 29.7819 28.762 30.1157 28.6239C30.4495 28.4857 30.8072 28.4147 31.1685 28.4148C31.8981 28.4151 32.5977 28.7051 33.1134 29.2212C33.6292 29.7373 33.9187 30.4371 33.9185 31.1667C33.9183 31.8962 33.6282 32.5959 33.1121 33.1116C32.5961 33.6273 31.8963 33.9169 31.1667 33.9167Z" fill="white"></path>
</svg>
