<svg width="44" height="44" fill="none" xmlns="http://www.w3.org/2000/svg"><path d="M13.75 24.75h11v2.75h-11v-2.75Zm0-6.875h16.5v2.75h-16.5v-2.75Zm0 13.75h6.875v2.75H13.75v-2.75Z" fill="#fff"/><path d="M34.375 6.875H30.25V5.5a2.75 2.75 0 0 0-2.75-2.75h-11a2.75 2.75 0 0 0-2.75 2.75v1.375H9.625a2.75 2.75 0 0 0-2.75 2.75V38.5a2.75 2.75 0 0 0 2.75 2.75h24.75a2.75 2.75 0 0 0 2.75-2.75V9.625a2.75 2.75 0 0 0-2.75-2.75ZM16.5 5.5h11V11h-11V5.5Zm17.875 33H9.625V9.625h4.125v4.125h16.5V9.625h4.125V38.5Z" fill="#fff"/></svg>