<svg width="44" height="44" viewBox="0 0 44 44" fill="none" xmlns="http://www.w3.org/2000/svg">
<path d="M13.75 24.75H24.75V27.5H13.75V24.75ZM13.75 17.875H30.25V20.625H13.75V17.875ZM13.75 31.625H20.625V34.375H13.75V31.625Z" fill="white"></path>
<path d="M34.375 6.875H30.25V5.5C30.25 4.77065 29.9603 4.07118 29.4445 3.55546C28.9288 3.03973 28.2293 2.75 27.5 2.75H16.5C15.7707 2.75 15.0712 3.03973 14.5555 3.55546C14.0397 4.07118 13.75 4.77065 13.75 5.5V6.875H9.625C8.89565 6.875 8.19618 7.16473 7.68046 7.68046C7.16473 8.19618 6.875 8.89565 6.875 9.625V38.5C6.875 39.2293 7.16473 39.9288 7.68046 40.4445C8.19618 40.9603 8.89565 41.25 9.625 41.25H34.375C35.1043 41.25 35.8038 40.9603 36.3195 40.4445C36.8353 39.9288 37.125 39.2293 37.125 38.5V9.625C37.125 8.89565 36.8353 8.19618 36.3195 7.68046C35.8038 7.16473 35.1043 6.875 34.375 6.875ZM16.5 5.5H27.5V11H16.5V5.5ZM34.375 38.5H9.625V9.625H13.75V13.75H30.25V9.625H34.375V38.5Z" fill="white"></path>
</svg>
