<svg width="21" height="21" viewBox="0 0 21 21" fill="none" xmlns="http://www.w3.org/2000/svg">
<path d="M10.5 1.3125C6.87709 1.3125 3.9375 3.95842 3.9375 7.21875C3.9375 12.4688 10.5 19.6875 10.5 19.6875C10.5 19.6875 17.0625 12.4688 17.0625 7.21875C17.0625 3.95842 14.1229 1.3125 10.5 1.3125ZM10.5 10.5C9.98082 10.5 9.47331 10.346 9.04163 10.0576C8.60995 9.76917 8.2735 9.3592 8.07482 8.87954C7.87614 8.39989 7.82415 7.87209 7.92544 7.36289C8.02672 6.85369 8.27673 6.38596 8.64384 6.01884C9.01096 5.65173 9.47869 5.40172 9.98789 5.30044C10.4971 5.19915 11.0249 5.25114 11.5045 5.44982C11.9842 5.6485 12.3942 5.98495 12.6826 6.41663C12.971 6.84831 13.125 7.35582 13.125 7.875C13.1242 8.57096 12.8474 9.2382 12.3553 9.73032C11.8632 10.2224 11.196 10.4992 10.5 10.5Z" fill="#1873CD"></path>
</svg>
