<?xml version="1.0" encoding="UTF-8" standalone="no"?>
<!DOCTYPE svg PUBLIC "-//W3C//DTD SVG 1.1//EN" "http://www.w3.org/Graphics/SVG/1.1/DTD/svg11.dtd">
<svg width="100%" height="100%" viewBox="0 0 1835 519" version="1.1" xmlns="http://www.w3.org/2000/svg" xmlns:xlink="http://www.w3.org/1999/xlink" xml:space="preserve" xmlns:serif="http://www.serif.com/" style="fill-rule:evenodd;clip-rule:evenodd;stroke-linejoin:round;stroke-miterlimit:2;">
    <g transform="matrix(1,0,0,1,-583.108,-876.478)">
        <g transform="matrix(1,0,0,1.69577,1351.74,-666.393)">
            <g transform="matrix(6.45439,0,0,3.80618,-7707.48,-2515.75)">
                <path d="M1188.04,923.672L1192.89,923.672L1192.89,939.872C1192.49,940.005 1191.92,940.155 1191.17,940.322C1190.42,940.489 1189.55,940.655 1188.57,940.822C1187.58,940.989 1186.51,941.13 1185.34,941.247C1184.17,941.364 1182.99,941.422 1181.79,941.422C1179.36,941.422 1177.14,941.022 1175.14,940.222C1173.14,939.422 1171.42,938.255 1169.99,936.722C1168.56,935.189 1167.45,933.305 1166.67,931.072C1165.88,928.839 1165.49,926.272 1165.49,923.372C1165.49,920.472 1165.93,917.897 1166.82,915.647C1167.7,913.397 1168.89,911.505 1170.39,909.972C1171.89,908.439 1173.65,907.272 1175.67,906.472C1177.68,905.672 1179.84,905.272 1182.14,905.272C1183.71,905.272 1185.1,905.372 1186.32,905.572C1187.53,905.772 1188.58,906.005 1189.44,906.272C1190.31,906.539 1191.02,906.805 1191.57,907.072C1192.12,907.339 1192.49,907.539 1192.69,907.672L1191.14,911.722C1190.17,911.089 1188.89,910.564 1187.29,910.147C1185.69,909.73 1184.06,909.522 1182.39,909.522C1180.62,909.522 1179.02,909.839 1177.57,910.472C1176.12,911.105 1174.88,912.022 1173.87,913.222C1172.85,914.422 1172.06,915.88 1171.49,917.597C1170.92,919.314 1170.64,921.239 1170.64,923.372C1170.64,925.439 1170.88,927.322 1171.37,929.022C1171.85,930.722 1172.58,932.18 1173.57,933.397C1174.55,934.614 1175.77,935.555 1177.22,936.222C1178.67,936.889 1180.38,937.222 1182.34,937.222C1183.74,937.222 1184.93,937.147 1185.92,936.997C1186.9,936.847 1187.61,936.705 1188.04,936.572L1188.04,923.672Z" style="fill:rgb(255,155,0);fill-rule:nonzero;"></path>
            </g>
            <g transform="matrix(6.45439,0,0,3.80618,-7707.48,-2515.75)">
                <path d="M1226.24,923.372C1226.24,920.405 1226.68,917.789 1227.57,915.522C1228.45,913.255 1229.65,911.364 1231.17,909.847C1232.68,908.33 1234.45,907.189 1236.47,906.422C1238.48,905.655 1240.62,905.272 1242.89,905.272C1245.12,905.272 1247.23,905.655 1249.22,906.422C1251.2,907.189 1252.94,908.33 1254.44,909.847C1255.94,911.364 1257.13,913.255 1258.02,915.522C1258.9,917.789 1259.34,920.405 1259.34,923.372C1259.34,926.339 1258.9,928.955 1258.02,931.222C1257.13,933.489 1255.94,935.38 1254.44,936.897C1252.94,938.414 1251.2,939.555 1249.22,940.322C1247.23,941.089 1245.12,941.472 1242.89,941.472C1240.62,941.472 1238.48,941.089 1236.47,940.322C1234.45,939.555 1232.68,938.414 1231.17,936.897C1229.65,935.38 1228.45,933.489 1227.57,931.222C1226.68,928.955 1226.24,926.339 1226.24,923.372ZM1231.34,923.372C1231.34,925.472 1231.61,927.38 1232.14,929.097C1232.67,930.814 1233.43,932.272 1234.42,933.472C1235.4,934.672 1236.6,935.597 1238.02,936.247C1239.43,936.897 1241.03,937.222 1242.79,937.222C1244.56,937.222 1246.14,936.897 1247.54,936.247C1248.94,935.597 1250.13,934.672 1251.12,933.472C1252.1,932.272 1252.86,930.814 1253.39,929.097C1253.92,927.38 1254.19,925.472 1254.19,923.372C1254.19,921.272 1253.92,919.364 1253.39,917.647C1252.86,915.93 1252.1,914.472 1251.12,913.272C1250.13,912.072 1248.94,911.147 1247.54,910.497C1246.14,909.847 1244.56,909.522 1242.79,909.522C1241.03,909.522 1239.43,909.847 1238.02,910.497C1236.6,911.147 1235.4,912.072 1234.42,913.272C1233.43,914.472 1232.67,915.93 1232.14,917.647C1231.61,919.364 1231.34,921.272 1231.34,923.372Z" style="fill:rgb(255,155,0);fill-rule:nonzero;"></path>
            </g>
            <g transform="matrix(6.45439,0,0,3.80618,-7707.48,-2515.75)">
                <path d="M1289.39,934.022L1289.39,940.722L1266.24,940.722L1266.24,906.072L1274.04,906.072L1274.04,934.022L1289.39,934.022Z" style="fill:rgb(0,75,255);fill-rule:nonzero;"></path>
            </g>
            <g transform="matrix(6.45439,0,0,3.80618,-7707.48,-2515.75)">
                <path d="M1319.19,940.722C1318.8,939.518 1318.39,938.281 1317.94,937.012C1317.5,935.743 1317.06,934.48 1316.62,933.222L1303.09,933.222C1302.65,934.486 1302.21,935.753 1301.77,937.023C1301.33,938.293 1300.92,939.526 1300.54,940.722L1292.44,940.722C1293.75,936.989 1294.98,933.539 1296.15,930.372C1297.32,927.205 1298.47,924.222 1299.59,921.422C1300.71,918.622 1301.81,915.964 1302.9,913.447C1303.99,910.93 1305.11,908.472 1306.28,906.072L1313.68,906.072C1314.82,908.472 1315.94,910.93 1317.04,913.447C1318.15,915.964 1319.26,918.622 1320.38,921.422C1321.51,924.222 1322.65,927.205 1323.82,930.372C1325,933.539 1326.24,936.989 1327.54,940.722L1319.19,940.722ZM1309.82,913.922C1309.64,914.425 1309.39,915.11 1309.05,915.976C1308.72,916.842 1308.34,917.843 1307.91,918.978C1307.48,920.113 1307,921.363 1306.47,922.728C1305.94,924.093 1305.41,925.524 1304.86,927.022L1314.77,927.022C1314.24,925.52 1313.72,924.084 1313.23,922.715C1312.73,921.346 1312.26,920.094 1311.81,918.958C1311.36,917.823 1310.97,916.822 1310.63,915.957C1310.3,915.092 1310.02,914.414 1309.82,913.922Z" style="fill:rgb(0,75,255);fill-rule:nonzero;"></path>
            </g>
            <g transform="matrix(6.45439,0,0,3.80618,-7707.48,-2515.75)">
                <path d="M1343.54,941.172C1341.64,941.172 1339.75,941.114 1337.87,940.997C1335.98,940.88 1334.03,940.605 1331.99,940.172L1331.99,906.572C1333.59,906.272 1335.34,906.047 1337.24,905.897C1339.14,905.747 1340.91,905.672 1342.54,905.672C1344.74,905.672 1346.77,905.83 1348.62,906.147C1350.47,906.464 1352.06,907.005 1353.39,907.772C1354.73,908.539 1355.77,909.547 1356.52,910.797C1357.27,912.047 1357.64,913.589 1357.64,915.422C1357.64,918.189 1356.31,920.372 1353.64,921.972C1355.84,922.805 1357.34,923.939 1358.14,925.372C1358.94,926.805 1359.34,928.422 1359.34,930.222C1359.34,933.855 1358.02,936.589 1355.37,938.422C1352.72,940.255 1348.78,941.172 1343.54,941.172ZM1339.59,925.622L1339.59,934.572C1340.16,934.639 1340.78,934.689 1341.44,934.722C1342.11,934.755 1342.84,934.772 1343.64,934.772C1345.98,934.772 1347.86,934.439 1349.29,933.772C1350.73,933.105 1351.44,931.872 1351.44,930.072C1351.44,928.472 1350.84,927.33 1349.64,926.647C1348.44,925.964 1346.73,925.622 1344.49,925.622L1339.59,925.622ZM1339.59,919.672L1343.39,919.672C1345.79,919.672 1347.51,919.364 1348.54,918.747C1349.58,918.13 1350.09,917.139 1350.09,915.772C1350.09,914.372 1349.56,913.389 1348.49,912.822C1347.42,912.255 1345.86,911.972 1343.79,911.972C1343.12,911.972 1342.41,911.98 1341.64,911.997C1340.88,912.014 1340.19,912.055 1339.59,912.122L1339.59,919.672Z" style="fill:rgb(0,75,255);fill-rule:nonzero;"></path>
            </g>
            <g transform="matrix(3.31871,0,0,1.95705,-3898.67,-651.416)">
                <path d="M1180.12,934.13C1180.12,935.253 1179.91,936.254 1179.5,937.133C1179.08,938.012 1178.49,938.753 1177.73,939.355C1176.96,939.957 1176.05,940.413 1174.99,940.722C1173.94,941.031 1172.77,941.186 1171.5,941.186C1170.72,941.186 1169.98,941.125 1169.27,941.003C1168.56,940.881 1167.93,940.726 1167.36,940.539C1166.8,940.352 1166.33,940.157 1165.94,939.953C1165.55,939.75 1165.26,939.567 1165.08,939.404C1164.9,939.241 1164.77,939.013 1164.69,938.72C1164.61,938.427 1164.57,938.028 1164.57,937.524C1164.57,937.215 1164.59,936.954 1164.62,936.743C1164.65,936.531 1164.69,936.36 1164.74,936.23C1164.79,936.1 1164.86,936.006 1164.95,935.949C1165.04,935.892 1165.14,935.864 1165.25,935.864C1165.43,935.864 1165.7,935.974 1166.05,936.193C1166.4,936.413 1166.83,936.653 1167.34,936.914C1167.85,937.174 1168.46,937.414 1169.16,937.634C1169.86,937.854 1170.66,937.963 1171.58,937.963C1172.26,937.963 1172.88,937.89 1173.43,937.744C1173.99,937.597 1174.46,937.382 1174.87,937.097C1175.28,936.812 1175.59,936.45 1175.81,936.01C1176.03,935.571 1176.14,935.05 1176.14,934.448C1176.14,933.829 1175.98,933.308 1175.66,932.885C1175.35,932.462 1174.93,932.088 1174.41,931.762C1173.89,931.437 1173.3,931.148 1172.65,930.896C1172,930.643 1171.33,930.379 1170.64,930.102C1169.94,929.825 1169.27,929.512 1168.61,929.162C1167.95,928.812 1167.36,928.385 1166.84,927.88C1166.32,927.376 1165.9,926.774 1165.58,926.074C1165.27,925.374 1165.11,924.536 1165.11,923.559C1165.11,922.696 1165.27,921.87 1165.61,921.081C1165.94,920.292 1166.44,919.6 1167.11,919.006C1167.78,918.412 1168.61,917.936 1169.61,917.578C1170.61,917.22 1171.78,917.041 1173.11,917.041C1173.7,917.041 1174.29,917.089 1174.87,917.187C1175.46,917.285 1175.99,917.407 1176.46,917.553C1176.93,917.7 1177.33,917.858 1177.67,918.029C1178,918.2 1178.25,918.351 1178.42,918.481C1178.6,918.611 1178.71,918.725 1178.77,918.823C1178.82,918.92 1178.86,919.03 1178.89,919.152C1178.91,919.274 1178.94,919.425 1178.96,919.604C1178.99,919.783 1179,920.003 1179,920.263C1179,920.54 1178.99,920.78 1178.96,920.983C1178.94,921.187 1178.9,921.354 1178.84,921.484C1178.78,921.614 1178.71,921.708 1178.63,921.765C1178.55,921.822 1178.46,921.85 1178.36,921.85C1178.22,921.85 1178.01,921.761 1177.73,921.582C1177.45,921.403 1177.09,921.211 1176.65,921.008C1176.21,920.804 1175.7,920.613 1175.1,920.434C1174.51,920.255 1173.83,920.166 1173.07,920.166C1172.38,920.166 1171.78,920.243 1171.26,920.397C1170.74,920.552 1170.31,920.772 1169.98,921.057C1169.64,921.341 1169.39,921.679 1169.22,922.07C1169.05,922.46 1168.96,922.884 1168.96,923.339C1168.96,923.974 1169.13,924.507 1169.45,924.938C1169.78,925.37 1170.2,925.748 1170.72,926.074C1171.24,926.399 1171.84,926.692 1172.5,926.953C1173.17,927.213 1173.85,927.482 1174.54,927.758C1175.23,928.035 1175.92,928.344 1176.59,928.686C1177.27,929.028 1177.87,929.443 1178.39,929.931C1178.91,930.419 1179.33,931.005 1179.64,931.689C1179.96,932.373 1180.12,933.186 1180.12,934.13Z" style="fill:rgb(0,75,255);fill-rule:nonzero;"></path>
                <path d="M1229.63,928.173C1229.63,928.808 1229.47,929.26 1229.15,929.528C1228.84,929.797 1228.47,929.931 1228.06,929.931L1213.59,929.931C1213.59,931.152 1213.71,932.25 1213.96,933.227C1214.21,934.204 1214.62,935.042 1215.19,935.742C1215.76,936.442 1216.5,936.979 1217.42,937.353C1218.34,937.727 1219.46,937.915 1220.78,937.915C1221.83,937.915 1222.76,937.829 1223.58,937.658C1224.39,937.487 1225.1,937.296 1225.7,937.084C1226.3,936.873 1226.79,936.682 1227.17,936.511C1227.56,936.34 1227.85,936.254 1228.04,936.254C1228.16,936.254 1228.26,936.283 1228.35,936.34C1228.44,936.397 1228.51,936.482 1228.56,936.596C1228.61,936.71 1228.64,936.869 1228.67,937.072C1228.69,937.276 1228.7,937.524 1228.7,937.817C1228.7,938.028 1228.7,938.212 1228.68,938.366C1228.66,938.521 1228.64,938.659 1228.62,938.781C1228.6,938.903 1228.55,939.013 1228.5,939.111C1228.44,939.208 1228.37,939.302 1228.28,939.392C1228.19,939.481 1227.92,939.628 1227.48,939.831C1227.05,940.035 1226.48,940.234 1225.78,940.429C1225.08,940.625 1224.27,940.799 1223.35,940.954C1222.43,941.109 1221.45,941.186 1220.4,941.186C1218.6,941.186 1217.02,940.934 1215.65,940.429C1214.3,939.925 1213.15,939.176 1212.23,938.183C1211.3,937.19 1210.6,935.945 1210.13,934.448C1209.65,932.95 1209.42,931.209 1209.42,929.223C1209.42,927.335 1209.66,925.638 1210.15,924.133C1210.64,922.627 1211.34,921.35 1212.26,920.3C1213.18,919.25 1214.29,918.444 1215.59,917.883C1216.9,917.321 1218.35,917.041 1219.96,917.041C1221.69,917.041 1223.16,917.317 1224.37,917.871C1225.58,918.424 1226.58,919.169 1227.36,920.104C1228.14,921.04 1228.72,922.139 1229.08,923.4C1229.45,924.662 1229.63,926.009 1229.63,927.441L1229.63,928.173ZM1225.58,926.977C1225.63,924.861 1225.16,923.201 1224.17,921.997C1223.18,920.792 1221.71,920.19 1219.76,920.19C1218.76,920.19 1217.88,920.377 1217.13,920.751C1216.38,921.126 1215.75,921.622 1215.24,922.241C1214.73,922.859 1214.34,923.579 1214.06,924.401C1213.78,925.223 1213.62,926.082 1213.59,926.977L1225.58,926.977Z" style="fill:rgb(0,75,255);fill-rule:nonzero;"></path>
                <path d="M1273.6,919.58C1273.6,919.938 1273.59,920.239 1273.58,920.483C1273.56,920.727 1273.53,920.918 1273.48,921.057C1273.43,921.195 1273.37,921.301 1273.3,921.374C1273.22,921.447 1273.12,921.484 1272.99,921.484C1272.86,921.484 1272.7,921.447 1272.52,921.374C1272.33,921.301 1272.12,921.228 1271.88,921.154C1271.64,921.081 1271.38,921.012 1271.09,920.947C1270.8,920.882 1270.48,920.849 1270.13,920.849C1269.73,920.849 1269.33,920.93 1268.94,921.093C1268.55,921.256 1268.14,921.525 1267.71,921.899C1267.28,922.273 1266.82,922.77 1266.35,923.388C1265.88,924.007 1265.36,924.764 1264.79,925.659L1264.79,940.112C1264.79,940.242 1264.76,940.352 1264.69,940.441C1264.63,940.531 1264.52,940.608 1264.37,940.673C1264.23,940.738 1264.02,940.787 1263.76,940.82C1263.5,940.852 1263.17,940.869 1262.76,940.869C1262.37,940.869 1262.05,940.852 1261.79,940.82C1261.53,940.787 1261.32,940.738 1261.16,940.673C1261.01,940.608 1260.9,940.531 1260.85,940.441C1260.79,940.352 1260.76,940.242 1260.76,940.112L1260.76,918.139C1260.76,918.009 1260.79,917.899 1260.83,917.81C1260.88,917.72 1260.98,917.639 1261.13,917.565C1261.27,917.492 1261.46,917.443 1261.69,917.419C1261.92,917.395 1262.22,917.382 1262.59,917.382C1262.95,917.382 1263.25,917.395 1263.48,917.419C1263.72,917.443 1263.9,917.492 1264.03,917.565C1264.16,917.639 1264.26,917.72 1264.31,917.81C1264.37,917.899 1264.4,918.009 1264.4,918.139L1264.4,921.337C1265,920.458 1265.57,919.742 1266.1,919.189C1266.62,918.636 1267.12,918.2 1267.6,917.883C1268.07,917.565 1268.54,917.346 1269,917.224C1269.46,917.102 1269.93,917.041 1270.4,917.041C1270.62,917.041 1270.86,917.053 1271.12,917.077C1271.39,917.102 1271.67,917.146 1271.97,917.211C1272.26,917.277 1272.52,917.35 1272.76,917.431C1273,917.513 1273.16,917.594 1273.26,917.675C1273.36,917.757 1273.42,917.834 1273.46,917.907C1273.49,917.98 1273.52,918.074 1273.54,918.188C1273.57,918.302 1273.58,918.469 1273.59,918.688C1273.6,918.908 1273.6,919.205 1273.6,919.58Z" style="fill:rgb(0,75,255);fill-rule:nonzero;"></path>
                <path d="M1321.67,918.09C1321.67,918.155 1321.67,918.225 1321.66,918.298C1321.65,918.371 1321.64,918.448 1321.62,918.53C1321.61,918.611 1321.59,918.701 1321.56,918.798C1321.54,918.896 1321.51,919.002 1321.48,919.116L1313.98,939.99C1313.92,940.169 1313.83,940.315 1313.73,940.429C1313.62,940.543 1313.46,940.633 1313.25,940.698C1313.04,940.763 1312.77,940.808 1312.44,940.832C1312.12,940.856 1311.71,940.869 1311.22,940.869C1310.74,940.869 1310.33,940.852 1310,940.82C1309.68,940.787 1309.41,940.738 1309.21,940.673C1309.01,940.608 1308.85,940.519 1308.73,940.405C1308.62,940.291 1308.53,940.153 1308.47,939.99L1301,919.116C1300.93,918.92 1300.88,918.75 1300.84,918.603C1300.8,918.457 1300.77,918.347 1300.76,918.273C1300.76,918.2 1300.75,918.139 1300.75,918.09C1300.75,917.96 1300.78,917.846 1300.85,917.749C1300.91,917.651 1301.02,917.574 1301.18,917.517C1301.33,917.46 1301.54,917.423 1301.79,917.407C1302.04,917.39 1302.35,917.382 1302.73,917.382C1303.2,917.382 1303.58,917.395 1303.86,917.419C1304.15,917.443 1304.37,917.488 1304.52,917.553C1304.68,917.618 1304.79,917.7 1304.86,917.797C1304.94,917.895 1305.01,918.017 1305.07,918.164L1311.27,936.279L1311.37,936.572L1311.44,936.279L1317.57,918.164C1317.61,918.017 1317.66,917.895 1317.74,917.797C1317.82,917.7 1317.94,917.618 1318.1,917.553C1318.25,917.488 1318.46,917.443 1318.73,917.419C1319,917.395 1319.35,917.382 1319.79,917.382C1320.17,917.382 1320.48,917.39 1320.72,917.407C1320.97,917.423 1321.16,917.464 1321.3,917.529C1321.43,917.594 1321.53,917.671 1321.59,917.761C1321.64,917.85 1321.67,917.96 1321.67,918.09Z" style="fill:rgb(0,75,255);fill-rule:nonzero;"></path>
                <path d="M1355.27,940.112C1355.27,940.242 1355.24,940.352 1355.17,940.441C1355.11,940.531 1355,940.608 1354.85,940.673C1354.71,940.738 1354.5,940.787 1354.24,940.82C1353.98,940.852 1353.65,940.869 1353.24,940.869C1352.85,940.869 1352.53,940.852 1352.26,940.82C1352,940.787 1351.8,940.738 1351.64,940.673C1351.49,940.608 1351.38,940.531 1351.32,940.441C1351.27,940.352 1351.24,940.242 1351.24,940.112L1351.24,918.139C1351.24,918.025 1351.27,917.919 1351.32,917.822C1351.38,917.724 1351.49,917.643 1351.64,917.578C1351.8,917.513 1352,917.464 1352.26,917.431C1352.53,917.399 1352.85,917.382 1353.24,917.382C1353.65,917.382 1353.98,917.399 1354.24,917.431C1354.5,917.464 1354.71,917.513 1354.85,917.578C1355,917.643 1355.11,917.724 1355.17,917.822C1355.24,917.919 1355.27,918.025 1355.27,918.139L1355.27,940.112ZM1355.73,910.717C1355.73,911.661 1355.55,912.304 1355.19,912.646C1354.84,912.988 1354.18,913.159 1353.22,913.159C1352.27,913.159 1351.63,912.992 1351.28,912.658C1350.93,912.325 1350.75,911.694 1350.75,910.766C1350.75,909.822 1350.93,909.179 1351.29,908.837C1351.65,908.496 1352.31,908.325 1353.27,908.325C1354.21,908.325 1354.86,908.492 1355.21,908.825C1355.56,909.159 1355.73,909.79 1355.73,910.717Z" style="fill:rgb(0,75,255);fill-rule:nonzero;"></path>
                <path d="M1403.51,936.767C1403.51,937.044 1403.5,937.284 1403.49,937.487C1403.47,937.691 1403.44,937.862 1403.4,938C1403.36,938.138 1403.31,938.26 1403.25,938.366C1403.2,938.472 1403.07,938.627 1402.86,938.83C1402.66,939.034 1402.31,939.286 1401.83,939.587C1401.34,939.888 1400.79,940.157 1400.18,940.393C1399.57,940.629 1398.9,940.82 1398.19,940.966C1397.47,941.113 1396.73,941.186 1395.97,941.186C1394.39,941.186 1392.99,940.926 1391.77,940.405C1390.55,939.884 1389.52,939.123 1388.7,938.122C1387.88,937.121 1387.25,935.892 1386.82,934.436C1386.39,932.979 1386.18,931.298 1386.18,929.394C1386.18,927.229 1386.44,925.37 1386.97,923.815C1387.5,922.261 1388.22,920.987 1389.14,919.995C1390.06,919.002 1391.14,918.265 1392.39,917.785C1393.63,917.305 1394.98,917.065 1396.43,917.065C1397.13,917.065 1397.81,917.13 1398.47,917.26C1399.13,917.39 1399.73,917.561 1400.29,917.773C1400.84,917.985 1401.33,918.229 1401.76,918.505C1402.19,918.782 1402.51,919.018 1402.7,919.213C1402.9,919.409 1403.03,919.563 1403.11,919.677C1403.18,919.791 1403.24,919.925 1403.29,920.08C1403.34,920.235 1403.37,920.41 1403.39,920.605C1403.4,920.8 1403.41,921.044 1403.41,921.337C1403.41,921.972 1403.34,922.416 1403.19,922.668C1403.05,922.92 1402.87,923.046 1402.65,923.046C1402.41,923.046 1402.13,922.912 1401.81,922.644C1401.5,922.375 1401.09,922.078 1400.6,921.752C1400.12,921.427 1399.53,921.13 1398.83,920.861C1398.14,920.593 1397.33,920.458 1396.38,920.458C1394.44,920.458 1392.96,921.203 1391.92,922.692C1390.89,924.182 1390.38,926.342 1390.38,929.174C1390.38,930.59 1390.51,931.831 1390.78,932.897C1391.05,933.964 1391.44,934.855 1391.96,935.571C1392.48,936.287 1393.12,936.82 1393.88,937.17C1394.63,937.52 1395.5,937.695 1396.48,937.695C1397.41,937.695 1398.22,937.548 1398.92,937.255C1399.62,936.962 1400.23,936.641 1400.74,936.291C1401.25,935.941 1401.68,935.624 1402.03,935.339C1402.38,935.054 1402.65,934.912 1402.85,934.912C1402.96,934.912 1403.06,934.944 1403.14,935.009C1403.23,935.074 1403.29,935.184 1403.35,935.339C1403.41,935.493 1403.45,935.689 1403.47,935.925C1403.5,936.161 1403.51,936.442 1403.51,936.767Z" style="fill:rgb(0,75,255);fill-rule:nonzero;"></path>
                <path d="M1452.61,928.173C1452.61,928.808 1452.45,929.26 1452.13,929.528C1451.81,929.797 1451.44,929.931 1451.04,929.931L1436.57,929.931C1436.57,931.152 1436.69,932.25 1436.93,933.227C1437.18,934.204 1437.59,935.042 1438.16,935.742C1438.73,936.442 1439.48,936.979 1440.39,937.353C1441.31,937.727 1442.43,937.915 1443.75,937.915C1444.8,937.915 1445.73,937.829 1446.55,937.658C1447.37,937.487 1448.08,937.296 1448.67,937.084C1449.27,936.873 1449.76,936.682 1450.14,936.511C1450.53,936.34 1450.82,936.254 1451.02,936.254C1451.13,936.254 1451.23,936.283 1451.32,936.34C1451.41,936.397 1451.48,936.482 1451.53,936.596C1451.58,936.71 1451.62,936.869 1451.64,937.072C1451.67,937.276 1451.68,937.524 1451.68,937.817C1451.68,938.028 1451.67,938.212 1451.65,938.366C1451.64,938.521 1451.62,938.659 1451.59,938.781C1451.57,938.903 1451.53,939.013 1451.47,939.111C1451.41,939.208 1451.34,939.302 1451.25,939.392C1451.16,939.481 1450.9,939.628 1450.46,939.831C1450.02,940.035 1449.45,940.234 1448.75,940.429C1448.05,940.625 1447.24,940.799 1446.32,940.954C1445.4,941.109 1444.42,941.186 1443.38,941.186C1441.57,941.186 1439.99,940.934 1438.63,940.429C1437.27,939.925 1436.13,939.176 1435.2,938.183C1434.27,937.19 1433.57,935.945 1433.1,934.448C1432.63,932.95 1432.39,931.209 1432.39,929.223C1432.39,927.335 1432.63,925.638 1433.12,924.133C1433.61,922.627 1434.32,921.35 1435.24,920.3C1436.15,919.25 1437.27,918.444 1438.57,917.883C1439.87,917.321 1441.33,917.041 1442.94,917.041C1444.66,917.041 1446.13,917.317 1447.35,917.871C1448.56,918.424 1449.55,919.169 1450.34,920.104C1451.12,921.04 1451.69,922.139 1452.06,923.4C1452.42,924.662 1452.61,926.009 1452.61,927.441L1452.61,928.173ZM1448.55,926.977C1448.6,924.861 1448.13,923.201 1447.14,921.997C1446.15,920.792 1444.68,920.19 1442.73,920.19C1441.73,920.19 1440.86,920.377 1440.1,920.751C1439.35,921.126 1438.72,921.622 1438.21,922.241C1437.7,922.859 1437.31,923.579 1437.03,924.401C1436.76,925.223 1436.6,926.082 1436.57,926.977L1448.55,926.977Z" style="fill:rgb(0,75,255);fill-rule:nonzero;"></path>
            </g>
            <g transform="matrix(1,0,0,0.589703,-1351.74,392.974)">
                <path d="M1531.21,1112.48L1537.28,1112.48L1537.28,1139.27L1392.7,1139.27L1392.7,1113.95L1531.21,1113.95L1531.21,1112.48ZM1528.51,1034.02L1392.7,1034.02L1392.7,1009.01L1528.51,1009.01L1528.51,1034.02ZM1529.21,942.04L1392.7,942.04L1392.7,915.625L1529.21,915.625L1529.21,942.04Z" style="fill:rgb(255,155,0);fill-rule:nonzero;"></path>
            </g>
            <g transform="matrix(1.63358,0,0,0.963327,-1502.23,862.465)">
                <path d="M521.947,266.367L538.087,175.32C538.365,175.368 538.646,175.4 538.93,175.415L522.839,266.196C522.541,266.234 522.242,266.291 521.947,266.367Z" style="fill:rgb(0,75,255);fill-rule:nonzero;"></path>
            </g>
            <g transform="matrix(1.63358,0,0,0.963327,-1502.23,862.465)">
                <path d="M488.581,170.952C488.525,170.672 488.453,170.393 488.362,170.116L532.013,168.038C532.01,168.32 532.023,168.603 532.053,168.886L488.581,170.952Z" style="fill:rgb(0,75,255);fill-rule:nonzero;"></path>
            </g>
            <g transform="matrix(1.63358,0,0,0.963327,-1502.23,862.465)">
                <path d="M536.212,161.503L531.137,148.84L531.923,148.516L537.001,161.186C536.79,161.256 536.581,161.337 536.374,161.429C536.319,161.453 536.265,161.477 536.212,161.503ZM530.823,148.055L510.827,98.155C511.038,98.084 511.248,98.003 511.456,97.912C511.509,97.888 511.562,97.864 511.614,97.84L531.609,147.732L530.823,148.055Z" style="fill:rgb(0,75,255);fill-rule:nonzero;"></path>
            </g>
            <g transform="matrix(1.63358,0,0,0.963327,-1502.23,862.465)">
                <path d="M483.412,165.342C483.139,165.264 482.861,165.202 482.579,165.156L505.731,97.986C505.992,98.093 506.259,98.185 506.531,98.262L483.412,165.342Z" style="fill:rgb(0,75,255);fill-rule:nonzero;"></path>
            </g>
            <g transform="matrix(1.63358,0,0,0.963327,-1502.23,862.465)">
                <path d="M457.572,224.409C457.281,224.361 456.987,224.33 456.691,224.317L476.432,177.718C476.649,177.92 476.877,178.107 477.115,178.28L457.572,224.409Z" style="fill:rgb(0,75,255);fill-rule:nonzero;"></path>
            </g>
            <g transform="matrix(1.63358,0,0,0.963327,-1502.23,862.465)">
                <path d="M516.544,272.322L461.342,236.985C461.555,236.788 461.754,236.58 461.94,236.362L516.737,271.441C516.655,271.73 516.59,272.024 516.544,272.322Z" style="fill:rgb(0,75,255);fill-rule:nonzero;"></path>
            </g>
            <g transform="matrix(1.63358,0,0,0.963327,-1502.23,862.465)">
                <path d="M492.414,301.696L457.44,238.849C457.731,238.807 458.021,238.746 458.309,238.666L492.895,300.817L492.501,301.176L492.785,301.489L492.414,301.696Z" style="fill:rgb(0,75,255);fill-rule:nonzero;"></path>
            </g>
            <g transform="matrix(1.63358,0,0,0.963327,-1502.23,862.465)">
                <path d="M493.07,301.804L492.785,301.489L492.501,301.176L492.895,300.817L518.008,277.951C518.184,278.175 518.37,278.387 518.568,278.586L493.07,301.804Z" style="fill:rgb(0,75,255);fill-rule:nonzero;"></path>
            </g>
            <g transform="matrix(1.63358,0,0,0.963327,-1502.23,862.465)">
                <path d="M634.978,342.557L635.751,291.282C635.93,291.295 636.109,291.302 636.288,291.302C636.392,291.302 636.496,291.3 636.6,291.295L635.831,342.278C635.545,342.353 635.26,342.446 634.978,342.557Z" style="fill:rgb(0,75,255);fill-rule:nonzero;"></path>
            </g>
            <g transform="matrix(1.63358,0,0,0.963327,-1502.23,862.465)">
                <path d="M561.09,348.458C560.887,348.255 560.674,348.066 560.45,347.891L596.011,317.669L596.774,318.13L561.09,348.458ZM597.453,317.554L596.69,317.092L630.454,288.398C630.624,288.625 630.807,288.84 631,289.042L597.453,317.554Z" style="fill:rgb(0,75,255);fill-rule:nonzero;"></path>
            </g>
            <g transform="matrix(1.63358,0,0,0.963327,-1502.23,862.465)">
                <path d="M528.255,267.683C528.026,267.505 527.788,267.341 527.54,267.192L576.126,221.742C576.276,221.989 576.44,222.225 576.616,222.448L528.255,267.683Z" style="fill:rgb(0,75,255);fill-rule:nonzero;"></path>
            </g>
            <g transform="matrix(1.63358,0,0,0.963327,-1502.23,862.465)">
                <path d="M578.82,211.531L543.959,173.766C544.179,173.585 544.386,173.393 544.581,173.191L579.62,211.15C579.55,211.179 579.479,211.208 579.409,211.239C579.207,211.329 579.01,211.426 578.82,211.531Z" style="fill:rgb(0,75,255);fill-rule:nonzero;"></path>
            </g>
            <g transform="matrix(1.63358,0,0,0.963327,-1502.23,862.465)">
                <path d="M543.409,162.059C543.175,161.901 542.932,161.757 542.682,161.627L556.465,138.413L557.767,137.877L543.409,162.059ZM557.184,137.201L587.653,85.884C587.846,86.106 588.051,86.314 588.267,86.509L558.486,136.665L557.184,137.201Z" style="fill:rgb(0,75,255);fill-rule:nonzero;"></path>
            </g>
            <g transform="matrix(1.63358,0,0,0.963327,-1502.23,862.465)">
                <path d="M588.599,214.126C588.451,213.883 588.291,213.651 588.119,213.431L615.938,194.219C615.862,194.588 615.815,194.963 615.797,195.342L588.599,214.126ZM625.365,188.734C625.007,188.617 624.64,188.528 624.267,188.467L682.299,148.39C682.419,148.65 682.553,148.9 682.699,149.139L625.365,188.734Z" style="fill:rgb(0,75,255);fill-rule:nonzero;"></path>
            </g>
            <g transform="matrix(1.63358,0,0,0.963327,-1502.23,862.465)">
                <path d="M631.223,278.725L585.039,224.719C585.128,224.684 585.216,224.647 585.305,224.608C585.487,224.528 585.665,224.441 585.838,224.347L631.867,278.174C631.64,278.346 631.425,278.53 631.223,278.725Z" style="fill:rgb(0,75,255);fill-rule:nonzero;"></path>
            </g>
            <g transform="matrix(1.63358,0,0,0.963327,-1502.23,862.465)">
                <path d="M640.736,278.199C640.511,278.026 640.277,277.868 640.035,277.723L662.441,244.749C662.664,244.924 662.896,245.085 663.137,245.233L640.736,278.199Z" style="fill:rgb(0,75,255);fill-rule:nonzero;"></path>
            </g>
            <g transform="matrix(1.63358,0,0,0.963327,-1502.23,862.465)">
                <path d="M659.668,238.452L629.796,230.69L629.71,229.792L659.782,237.607C659.728,237.886 659.689,238.167 659.668,238.452ZM628.925,230.464L589.308,220.17C589.395,219.901 589.467,219.626 589.522,219.349L628.839,229.566L628.925,230.464Z" style="fill:rgb(0,75,255);fill-rule:nonzero;"></path>
            </g>
            <g transform="matrix(1.63358,0,0,0.963327,-1502.23,862.465)">
                <path d="M745.523,255.891L673.762,241.654C673.866,241.388 673.954,241.116 674.025,240.84L745.69,255.059L745.523,255.891Z" style="fill:rgb(0,75,255);fill-rule:nonzero;"></path>
            </g>
            <g transform="matrix(1.63358,0,0,0.963327,-1502.23,862.465)">
                <path d="M748.974,181.395L748.929,180.972L747.78,181.093L696.194,146.092C696.23,145.76 696.243,145.425 696.232,145.089L749.212,181.044L748.974,181.395Z" style="fill:rgb(0,75,255);fill-rule:nonzero;"></path>
            </g>
            <g transform="matrix(1.63358,0,0,0.963327,-1502.23,862.465)">
                <path d="M694.045,140.104C693.843,139.906 693.63,139.72 693.408,139.548L713.011,115.031C713.24,115.199 713.479,115.353 713.725,115.492L694.045,140.104Z" style="fill:rgb(0,75,255);fill-rule:nonzero;"></path>
            </g>
            <g transform="matrix(1.63358,0,0,0.963327,-1502.23,862.465)">
                <path d="M690.286,138.14C689.968,138.079 689.645,138.039 689.319,138.021L660.605,68.424L660.933,68.375L660.87,67.958L661.266,67.794L690.286,138.14Z" style="fill:rgb(0,75,255);fill-rule:nonzero;"></path>
            </g>
            <g transform="matrix(1.63358,0,0,0.963327,-1502.23,862.465)">
                <path d="M599.621,77.659C599.476,77.384 599.314,77.122 599.139,76.874L657.164,68.089L660.837,68.377L660.87,67.956L660.87,67.958L660.933,68.375L660.605,68.424L599.621,77.659Z" style="fill:rgb(0,75,255);fill-rule:nonzero;"></path>
            </g>
            <g transform="matrix(1.63358,0,0,0.963327,-1502.23,862.465)">
                <path d="M515.749,92.206C515.788,91.917 515.81,91.626 515.815,91.333L586.171,78.992C586.083,79.286 586.013,79.586 585.962,79.89L515.749,92.206Z" style="fill:rgb(0,75,255);fill-rule:nonzero;"></path>
            </g>
            <g transform="matrix(1.63358,0,0,0.963327,-1502.23,862.465)">
                <path d="M515.775,90.463C515.744,90.176 515.697,89.89 515.63,89.605L582.12,61.401L582.284,61.789L582.251,62.209L582.36,62.218L515.775,90.463Z" style="fill:rgb(0,75,255);fill-rule:nonzero;"></path>
            </g>
            <g transform="matrix(1.63358,0,0,0.963327,-1502.23,862.465)">
                <path d="M660.837,68.377L657.164,68.089L582.36,62.218L582.251,62.209L582.284,61.789L582.317,61.368L660.903,67.535L660.837,68.377Z" style="fill:rgb(0,75,255);fill-rule:nonzero;"></path>
            </g>
            <g transform="matrix(1.63358,0,0,0.963327,-1502.23,862.465)">
                <path d="M454.588,224.534L463.912,158.641L464.748,158.761L455.465,224.368C455.172,224.405 454.879,224.461 454.588,224.534Z" style="fill:rgb(0,75,255);fill-rule:nonzero;"></path>
            </g>
            <g transform="matrix(1.63358,0,0,0.963327,-1502.23,862.465)">
                <path d="M616.823,191.938L546.492,169.511C546.547,169.229 546.586,168.944 546.607,168.656L617.321,191.206C617.14,191.44 616.973,191.685 616.823,191.938Z" style="fill:rgb(0,75,255);fill-rule:nonzero;"></path>
            </g>
            <g transform="matrix(1.63358,0,0,0.963327,-1502.23,862.465)">
                <path d="M633.415,277.276L628.925,230.464L628.839,229.566L626.222,202.284C626.504,202.151 626.772,202.002 627.028,201.839L629.71,229.792L629.796,230.69L634.236,276.981C633.96,277.062 633.686,277.16 633.415,277.276Z" style="fill:rgb(0,75,255);fill-rule:nonzero;"></path>
            </g>
            <g transform="matrix(1.63358,0,0,0.963327,-1502.23,862.465)">
                <path d="M604.08,322.552L596.774,318.13L596.011,317.669L529.785,277.587C529.945,277.353 530.092,277.11 530.224,276.86L596.69,317.092L597.453,317.554L604.692,321.935C604.475,322.13 604.271,322.336 604.08,322.552Z" style="fill:rgb(0,75,255);fill-rule:nonzero;"></path>
            </g>
            <g transform="matrix(1.63358,0,0,0.963327,-1502.23,862.465)">
                <path d="M613.975,321.558C613.748,321.386 613.512,321.229 613.268,321.085L631.175,289.218C631.383,289.422 631.602,289.611 631.83,289.787L613.975,321.558Z" style="fill:rgb(0,75,255);fill-rule:nonzero;"></path>
            </g>
            <g transform="matrix(1.63358,0,0,0.963327,-1502.23,862.465)">
                <path d="M562.196,349.876C562.048,349.629 561.887,349.392 561.714,349.168L602.772,330.076C602.806,330.162 602.842,330.248 602.88,330.334C602.957,330.509 603.04,330.679 603.129,330.844L562.196,349.876Z" style="fill:rgb(0,75,255);fill-rule:nonzero;"></path>
            </g>
            <g transform="matrix(1.63358,0,0,0.963327,-1502.23,862.465)">
                <path d="M486.567,167.189C486.343,166.966 486.106,166.759 485.857,166.569L530.823,148.055L531.609,147.732L557.184,137.201L558.486,136.665L582.062,126.958C582.101,127.242 582.157,127.524 582.23,127.806L557.767,137.877L556.465,138.413L531.923,148.516L531.137,148.84L486.567,167.189Z" style="fill:rgb(0,75,255);fill-rule:nonzero;"></path>
            </g>
            <g transform="matrix(1.63358,0,0,0.963327,-1502.23,862.465)">
                <path d="M456.384,238.927C453.578,238.927 450.902,237.301 449.696,234.567C448.067,230.875 449.741,226.562 453.433,224.934C453.812,224.766 454.199,224.634 454.588,224.534C454.879,224.461 455.172,224.405 455.465,224.368C455.769,224.33 456.074,224.311 456.377,224.311C456.482,224.311 456.586,224.313 456.691,224.317C456.987,224.33 457.281,224.361 457.572,224.409C459.92,224.8 462.032,226.329 463.063,228.672C464.235,231.324 463.702,234.295 461.94,236.362C461.754,236.58 461.555,236.788 461.342,236.985C460.764,237.519 460.09,237.968 459.329,238.303C458.994,238.451 458.653,238.572 458.309,238.666C458.021,238.746 457.731,238.807 457.44,238.849C457.088,238.901 456.735,238.927 456.384,238.927Z" style="fill:rgb(0,75,255);fill-rule:nonzero;"></path>
            </g>
            <g transform="matrix(1.63358,0,0,0.963327,-1502.23,862.465)">
                <path d="M481.421,179.681C479.871,179.681 478.36,179.185 477.115,178.28C476.877,178.107 476.649,177.92 476.432,177.718C475.727,177.062 475.141,176.256 474.727,175.319C473.1,171.629 474.773,167.315 478.467,165.686C479.425,165.262 480.427,165.062 481.411,165.062C481.804,165.062 482.195,165.094 482.579,165.156C482.861,165.202 483.139,165.264 483.412,165.342C484.294,165.593 485.125,166.008 485.857,166.569C486.106,166.759 486.343,166.966 486.567,167.189C487.195,167.813 487.718,168.563 488.097,169.422C488.198,169.651 488.286,169.883 488.362,170.116C488.453,170.393 488.525,170.672 488.581,170.952C489.235,174.237 487.553,177.652 484.362,179.059C483.405,179.481 482.405,179.681 481.421,179.681Z" style="fill:rgb(0,75,255);fill-rule:nonzero;"></path>
            </g>
            <g transform="matrix(1.63358,0,0,0.963327,-1502.23,862.465)">
                <path d="M508.509,98.535C507.836,98.535 507.171,98.442 506.531,98.262C506.259,98.185 505.992,98.093 505.731,97.986C504.046,97.294 502.618,95.976 501.824,94.176C500.194,90.485 501.87,86.172 505.562,84.544C506.52,84.121 507.521,83.921 508.505,83.921C511.311,83.921 513.987,85.547 515.19,88.281C515.382,88.715 515.529,89.159 515.63,89.605C515.697,89.89 515.744,90.176 515.775,90.463C515.806,90.753 515.818,91.044 515.815,91.333C515.81,91.626 515.788,91.917 515.749,92.206C515.426,94.586 513.935,96.751 511.614,97.84C511.562,97.864 511.509,97.888 511.456,97.912C511.248,98.003 511.038,98.084 510.827,98.155C510.063,98.412 509.281,98.535 508.509,98.535Z" style="fill:rgb(0,75,255);fill-rule:nonzero;"></path>
            </g>
            <g transform="matrix(1.63358,0,0,0.963327,-1502.23,862.465)">
                <path d="M539.328,175.426C539.195,175.426 539.062,175.423 538.93,175.415C538.646,175.4 538.365,175.368 538.087,175.32C535.756,174.917 533.663,173.391 532.635,171.063C532.321,170.353 532.13,169.619 532.053,168.886C532.023,168.603 532.01,168.32 532.013,168.038C532.044,165.318 533.601,162.731 536.212,161.503C536.265,161.477 536.319,161.453 536.374,161.429C536.581,161.337 536.79,161.256 537.001,161.186C537.764,160.929 538.545,160.806 539.316,160.806C540.494,160.806 541.649,161.093 542.682,161.627C542.932,161.757 543.175,161.901 543.409,162.059C544.514,162.803 545.427,163.858 546.004,165.167C546.134,165.461 546.242,165.759 546.331,166.059L540.294,167.054L540.431,167.892L546.523,166.888C546.625,167.478 546.651,168.072 546.607,168.656C546.586,168.944 546.547,169.229 546.492,169.511C546.224,170.885 545.565,172.169 544.581,173.191C544.386,173.393 544.179,173.585 543.959,173.766C543.458,174.177 542.892,174.529 542.27,174.804C541.312,175.226 540.312,175.426 539.328,175.426Z" style="fill:rgb(0,75,255);fill-rule:nonzero;"></path>
            </g>
            <g transform="matrix(1.63358,0,0,0.963327,-1502.23,862.465)">
                <path d="M523.766,280.755C521.822,280.755 519.94,279.975 518.568,278.586C518.37,278.387 518.184,278.175 518.008,277.951C517.643,277.483 517.331,276.964 517.081,276.396C516.494,275.068 516.334,273.658 516.544,272.322C516.59,272.024 516.655,271.73 516.737,271.441C517.313,269.426 518.748,267.672 520.815,266.76C521.187,266.596 521.565,266.465 521.947,266.367C522.242,266.291 522.541,266.234 522.839,266.196C523.145,266.157 523.452,266.137 523.757,266.137C525.096,266.137 526.406,266.508 527.54,267.192C527.788,267.341 528.026,267.505 528.255,267.683C529.179,268.403 529.944,269.355 530.45,270.501C531.385,272.624 531.229,274.954 530.224,276.86C530.092,277.11 529.945,277.353 529.785,277.587C529.043,278.669 528,279.564 526.711,280.132C525.752,280.555 524.751,280.755 523.766,280.755Z" style="fill:rgb(0,75,255);fill-rule:nonzero;"></path>
            </g>
            <g transform="matrix(1.63358,0,0,0.963327,-1502.23,862.465)">
                <path d="M609.568,334.694C606.941,334.694 604.428,333.269 603.129,330.844C603.04,330.679 602.957,330.509 602.88,330.334C602.842,330.248 602.806,330.162 602.772,330.076C601.731,327.452 602.316,324.558 604.08,322.552C604.271,322.336 604.475,322.13 604.692,321.935C605.25,321.436 605.894,321.015 606.616,320.696C607.574,320.274 608.574,320.074 609.558,320.074C610.868,320.074 612.151,320.429 613.268,321.085C613.512,321.229 613.748,321.386 613.975,321.558C614.935,322.284 615.729,323.258 616.249,324.437C617.878,328.129 616.206,332.442 612.513,334.07C611.554,334.493 610.553,334.694 609.568,334.694Z" style="fill:rgb(0,75,255);fill-rule:nonzero;"></path>
            </g>
            <g transform="matrix(1.63358,0,0,0.963327,-1502.23,862.465)">
                <path d="M636.288,291.302C636.109,291.302 635.93,291.295 635.751,291.282C634.328,291.177 632.961,290.655 631.83,289.787C631.602,289.611 631.383,289.422 631.175,289.218C631.116,289.161 631.058,289.102 631,289.042C630.807,288.84 630.624,288.625 630.454,288.398C630.121,287.957 629.833,287.47 629.601,286.942C628.329,284.057 629.074,280.791 631.223,278.725C631.425,278.53 631.64,278.346 631.867,278.174C632.312,277.837 632.804,277.545 633.338,277.31C633.363,277.298 633.389,277.287 633.415,277.276C633.686,277.16 633.96,277.062 634.236,276.981C634.912,276.782 635.6,276.687 636.281,276.687C637.608,276.687 638.907,277.051 640.035,277.723C640.277,277.868 640.511,278.026 640.736,278.199C641.679,278.921 642.458,279.883 642.971,281.045C644.599,284.739 642.925,289.052 639.233,290.679C638.375,291.057 637.484,291.257 636.6,291.295C636.496,291.3 636.392,291.302 636.288,291.302Z" style="fill:rgb(0,75,255);fill-rule:nonzero;"></path>
            </g>
            <g transform="matrix(1.63358,0,0,0.963327,-1502.23,862.465)">
                <path d="M582.358,225.232C580.143,225.232 578.009,224.219 576.616,222.448C576.44,222.225 576.276,221.989 576.126,221.742C575.958,221.467 575.806,221.177 575.672,220.874C574.132,217.382 575.544,213.34 578.82,211.531C579.01,211.426 579.207,211.329 579.409,211.239C579.479,211.208 579.55,211.179 579.62,211.15C580.514,210.789 581.44,210.617 582.352,210.617C584.58,210.617 586.726,211.641 588.119,213.431C588.291,213.651 588.451,213.883 588.599,214.126C588.762,214.396 588.911,214.68 589.042,214.976C589.671,216.405 589.806,217.926 589.522,219.349C589.467,219.626 589.395,219.901 589.308,220.17C588.747,221.907 587.541,223.427 585.838,224.347C585.665,224.441 585.487,224.528 585.305,224.608C585.216,224.647 585.128,224.684 585.039,224.719C584.161,225.067 583.253,225.232 582.358,225.232Z" style="fill:rgb(0,75,255);fill-rule:nonzero;"></path>
            </g>
            <g transform="matrix(1.63358,0,0,0.963327,-1502.23,862.465)">
                <path d="M623.101,202.987C620.294,202.987 617.618,201.361 616.414,198.629C615.941,197.558 615.746,196.436 615.797,195.342C615.815,194.963 615.862,194.588 615.938,194.219C616.103,193.415 616.402,192.643 616.823,191.938C616.973,191.685 617.14,191.44 617.321,191.206C617.763,190.635 618.294,190.124 618.904,189.697L621.871,195.713L622.629,195.338L619.627,189.252C619.797,189.161 619.972,189.075 620.151,188.996C621.11,188.573 622.111,188.372 623.096,188.372C623.49,188.372 623.882,188.405 624.267,188.467C624.64,188.528 625.007,188.617 625.365,188.734C627.269,189.356 628.911,190.755 629.783,192.733C629.897,192.991 629.995,193.253 630.077,193.516L625.847,193.962L625.935,194.806L630.283,194.347C630.823,197.247 629.549,200.236 627.028,201.839C626.772,202.002 626.504,202.151 626.222,202.284C626.164,202.311 626.105,202.338 626.046,202.364C625.087,202.787 624.086,202.987 623.101,202.987Z" style="fill:rgb(0,75,255);fill-rule:nonzero;"></path>
            </g>
            <g transform="matrix(1.63358,0,0,0.963327,-1502.23,862.465)">
                <path d="M666.959,246.311C665.604,246.311 664.28,245.932 663.137,245.233C662.896,245.085 662.664,244.924 662.441,244.749C661.527,244.033 660.771,243.087 660.27,241.95C659.767,240.811 659.579,239.612 659.668,238.452C659.689,238.167 659.728,237.886 659.782,237.607C660.226,235.34 661.734,233.319 664.007,232.316C664.965,231.894 665.965,231.694 666.949,231.694C669.756,231.694 672.432,233.321 673.637,236.055C674.328,237.622 674.425,239.301 674.025,240.84C673.954,241.116 673.866,241.388 673.762,241.654C673.086,243.394 671.747,244.876 669.902,245.688C668.944,246.111 667.943,246.311 666.959,246.311Z" style="fill:rgb(0,75,255);fill-rule:nonzero;"></path>
            </g>
            <g transform="matrix(1.63358,0,0,0.963327,-1502.23,862.465)">
                <path d="M688.931,152.627C686.437,152.627 684.046,151.343 682.699,149.139C682.553,148.9 682.419,148.65 682.299,148.39C682.28,148.349 682.261,148.308 682.243,148.267C681.719,147.08 681.537,145.829 681.653,144.623L686.659,143.798L686.522,142.963L681.793,143.742C682.279,141.55 683.767,139.609 685.979,138.633C686.937,138.21 687.936,138.01 688.92,138.01C689.053,138.01 689.186,138.014 689.319,138.021C689.645,138.039 689.968,138.079 690.286,138.14C691.419,138.356 692.492,138.838 693.408,139.548C693.63,139.72 693.843,139.906 694.045,140.104C694.689,140.735 695.226,141.496 695.612,142.371C696.003,143.256 696.204,144.178 696.232,145.089C696.243,145.425 696.23,145.76 696.194,146.092C695.924,148.606 694.355,150.911 691.876,152.004C690.917,152.427 689.916,152.627 688.931,152.627Z" style="fill:rgb(0,75,255);fill-rule:nonzero;"></path>
            </g>
            <g transform="matrix(1.63358,0,0,0.963327,-1502.23,862.465)">
                <path d="M589.309,133.278C586.502,133.278 583.825,131.652 582.619,128.921C582.457,128.554 582.328,128.181 582.23,127.806C582.157,127.524 582.101,127.242 582.062,126.958C581.632,123.811 583.306,120.633 586.355,119.287C587.314,118.864 588.315,118.664 589.299,118.664C592.106,118.664 594.782,120.29 595.988,123.024C597.617,126.714 595.942,131.027 592.251,132.656C592.103,132.721 591.953,132.782 591.803,132.836L588.935,127.019L588.178,127.395L590.983,133.083C590.427,133.214 589.865,133.278 589.309,133.278Z" style="fill:rgb(0,75,255);fill-rule:nonzero;"></path>
            </g>
            <g transform="matrix(1.63358,0,0,0.963327,-1502.23,862.465)">
                <path d="M593.173,88.397C591.364,88.397 589.608,87.721 588.267,86.509C588.051,86.314 587.846,86.106 587.653,85.884C587.185,85.344 586.788,84.726 586.485,84.039C585.888,82.684 585.735,81.247 585.962,79.89C586.013,79.586 586.083,79.286 586.171,78.992C586.764,77.016 588.186,75.302 590.222,74.405C591.18,73.981 592.181,73.781 593.166,73.781C595.507,73.781 597.757,74.912 599.139,76.874C599.314,77.122 599.476,77.384 599.621,77.659C599.704,77.815 599.782,77.975 599.855,78.14C601.483,81.832 599.81,86.144 596.118,87.774C595.159,88.196 594.158,88.397 593.173,88.397Z" style="fill:rgb(0,75,255);fill-rule:nonzero;"></path>
            </g>
            <g transform="matrix(1.63358,0,0,0.963327,-1502.23,862.465)">
                <path d="M717.334,116.444C716.062,116.444 714.818,116.111 713.725,115.492C713.479,115.353 713.24,115.199 713.011,115.031C712.01,114.299 711.182,113.302 710.646,112.087C709.018,108.394 710.689,104.082 714.381,102.454C715.341,102.031 716.342,101.831 717.328,101.831C720.135,101.831 722.811,103.456 724.016,106.188C725.643,109.879 723.971,114.193 720.279,115.821C719.32,116.244 718.319,116.444 717.334,116.444Z" style="fill:rgb(0,75,255);fill-rule:nonzero;"></path>
            </g>
            <g transform="matrix(1.63358,0,0,0.963327,-1502.23,862.465)">
                <path d="M621.871,195.713L618.904,189.697L603.061,157.572L603.932,157.429L619.627,189.252L622.629,195.338L621.871,195.713ZM602.669,156.778L590.983,133.083L588.178,127.395L588.935,127.019L591.803,132.836L603.54,156.634L602.669,156.778Z" style="fill:rgb(0,75,255);fill-rule:nonzero;"></path>
            </g>
            <g transform="matrix(1.63358,0,0,0.963327,-1502.23,862.465)">
                <path d="M540.431,167.892L540.294,167.054L546.331,166.059L602.669,156.778L603.54,156.634L681.793,143.742L686.522,142.963L686.659,143.798L681.653,144.623L603.932,157.429L603.061,157.572L546.523,166.888L540.431,167.892Z" style="fill:rgb(0,75,255);fill-rule:nonzero;"></path>
            </g>
            <g transform="matrix(1.63358,0,0,0.963327,-1502.23,862.465)">
                <path d="M625.935,194.806L625.847,193.962L630.077,193.516L747.78,181.093L748.929,180.972L748.974,181.395L749.019,181.816L630.283,194.347L625.935,194.806Z" style="fill:rgb(0,75,255);fill-rule:nonzero;"></path>
            </g>
            <g transform="matrix(1.63358,0,0,0.963327,-1502.23,862.465)">
                <path d="M637.714,81.547L535.467,122.301L535.153,121.514L637.401,80.758L637.714,81.547Z" style="fill:rgb(0,75,255);fill-rule:nonzero;"></path>
            </g>
            <g transform="matrix(1.63358,0,0,0.963327,-1502.23,862.465)">
                <path d="M640.751,139.401L639.905,139.445L637.134,81.173L637.981,81.134L640.751,139.401Z" style="fill:rgb(0,75,255);fill-rule:nonzero;"></path>
            </g>
            <g transform="matrix(1.63358,0,0,0.963327,-1502.23,862.465)">
                <path d="M717.373,109.002L640.485,139.813L640.174,139.031L717.062,108.218L717.373,109.002Z" style="fill:rgb(0,75,255);fill-rule:nonzero;"></path>
            </g>
            <g transform="matrix(1.63358,0,0,0.963327,-1502.23,862.465)">
                <path d="M717.079,109.011L637.419,81.554L637.693,80.752L717.353,108.21L717.079,109.011Z" style="fill:rgb(0,75,255);fill-rule:nonzero;"></path>
            </g>
            <g transform="matrix(1.63358,0,0,0.963327,-1502.23,862.465)">
                <path d="M636.705,79.985L576.503,54.482L576.829,53.703L637.034,79.206L636.705,79.985Z" style="fill:rgb(0,75,255);fill-rule:nonzero;"></path>
            </g>
            <g transform="matrix(1.63358,0,0,0.963327,-1502.23,862.465)">
                <path d="M534.464,120.81L533.749,120.353L576.311,53.864L577.024,54.321L534.464,120.81Z" style="fill:rgb(0,75,255);fill-rule:nonzero;"></path>
            </g>
            <g transform="matrix(1.63358,0,0,0.963327,-1502.23,862.465)">
                <path d="M509.921,89.566L509.531,88.822L576.473,53.719L576.865,54.469L509.921,89.566Z" style="fill:rgb(0,75,255);fill-rule:nonzero;"></path>
            </g>
            <g transform="matrix(1.63358,0,0,0.963327,-1502.23,862.465)">
                <path d="M531.976,120.996L509.379,89.44L510.068,88.949L532.667,120.503L531.976,120.996Z" style="fill:rgb(0,75,255);fill-rule:nonzero;"></path>
            </g>
            <g transform="matrix(1.63358,0,0,0.963327,-1502.23,862.465)">
                <path d="M462.275,155.821L461.923,155.052L535.13,121.522L535.484,122.293L462.275,155.821Z" style="fill:rgb(0,75,255);fill-rule:nonzero;"></path>
            </g>
            <g transform="matrix(1.63358,0,0,0.963327,-1502.23,862.465)">
                <path d="M462.445,155.686L461.756,155.188L509.382,88.949L510.073,89.442L462.445,155.686Z" style="fill:rgb(0,75,255);fill-rule:nonzero;"></path>
            </g>
            <g transform="matrix(1.63358,0,0,0.963327,-1502.23,862.465)">
                <path d="M463.734,235.458L462.886,235.471L461.675,155.442L462.523,155.432L463.734,235.458Z" style="fill:rgb(0,75,255);fill-rule:nonzero;"></path>
            </g>
            <g transform="matrix(1.63358,0,0,0.963327,-1502.23,862.465)">
                <path d="M524.443,236.813L463.307,235.888L463.319,235.041L524.459,235.966L524.443,236.813Z" style="fill:rgb(0,75,255);fill-rule:nonzero;"></path>
            </g>
            <g transform="matrix(1.63358,0,0,0.963327,-1502.23,862.465)">
                <path d="M524.114,236.647L461.764,155.696L462.435,155.176L524.788,236.132L524.114,236.647Z" style="fill:rgb(0,75,255);fill-rule:nonzero;"></path>
            </g>
            <g transform="matrix(1.63358,0,0,0.963327,-1502.23,862.465)">
                <path d="M522.667,239.883L521.831,239.79L534.89,121.861L535.728,121.956L522.667,239.883Z" style="fill:rgb(0,75,255);fill-rule:nonzero;"></path>
            </g>
            <g transform="matrix(1.63358,0,0,0.963327,-1502.23,862.465)">
                <path d="M592.456,183.62L535.001,122.199L535.619,121.619L593.075,183.039L592.456,183.62Z" style="fill:rgb(0,75,255);fill-rule:nonzero;"></path>
            </g>
            <g transform="matrix(1.63358,0,0,0.963327,-1502.23,862.465)">
                <path d="M593.052,183.638L592.479,183.018L640.042,139.113L640.614,139.731L593.052,183.638Z" style="fill:rgb(0,75,255);fill-rule:nonzero;"></path>
            </g>
            <g transform="matrix(1.63358,0,0,0.963327,-1502.23,862.465)">
                <path d="M729.947,193.124L640.112,139.788L640.544,139.058L730.378,192.396L729.947,193.124Z" style="fill:rgb(0,75,255);fill-rule:nonzero;"></path>
            </g>
            <g transform="matrix(1.63358,0,0,0.963327,-1502.23,862.465)">
                <path d="M664.891,290.105L664.188,289.629L729.811,192.523L730.513,192.997L664.891,290.105Z" style="fill:rgb(0,75,255);fill-rule:nonzero;"></path>
            </g>
            <g transform="matrix(1.63358,0,0,0.963327,-1502.23,862.465)">
                <path d="M524.725,236.711L524.175,236.068L588.524,181.037L589.074,181.681L524.725,236.711Z" style="fill:rgb(0,75,255);fill-rule:nonzero;"></path>
            </g>
            <g transform="matrix(1.63358,0,0,0.963327,-1502.23,862.465)">
                <path d="M568.459,266.803L524.21,236.74L524.689,236.039L568.933,266.103L568.459,266.803Z" style="fill:rgb(0,75,255);fill-rule:nonzero;"></path>
            </g>
            <g transform="matrix(1.63358,0,0,0.963327,-1502.23,862.465)">
                <path d="M569.103,266.556L568.284,266.343L590.11,182.353L590.932,182.563L569.103,266.556Z" style="fill:rgb(0,75,255);fill-rule:nonzero;"></path>
            </g>
            <g transform="matrix(1.63358,0,0,0.963327,-1502.23,862.465)">
                <path d="M664.44,290.278L568.596,266.862L568.796,266.039L664.64,289.457L664.44,290.278Z" style="fill:rgb(0,75,255);fill-rule:nonzero;"></path>
            </g>
            <g transform="matrix(1.63358,0,0,0.963327,-1502.23,862.465)">
                <path d="M551.365,328.925L550.549,328.691L568.289,266.338L569.103,266.568L551.365,328.925Z" style="fill:rgb(0,75,255);fill-rule:nonzero;"></path>
            </g>
            <g transform="matrix(1.63358,0,0,0.963327,-1502.23,862.465)">
                <path d="M550.037,329.903L549.224,330.124L524.043,236.501L524.856,236.28L550.037,329.903Z" style="fill:rgb(0,75,255);fill-rule:nonzero;"></path>
            </g>
            <g transform="matrix(1.63358,0,0,0.963327,-1502.23,862.465)">
                <path d="M549.447,330.393L491.667,301.96L492.037,301.198L549.817,329.634L549.447,330.393Z" style="fill:rgb(0,75,255);fill-rule:nonzero;"></path>
            </g>
            <g transform="matrix(1.63358,0,0,0.963327,-1502.23,862.465)">
                <path d="M492.242,301.411L491.464,301.747L462.924,235.633L463.702,235.297L492.242,301.411Z" style="fill:rgb(0,75,255);fill-rule:nonzero;"></path>
            </g>
            <g transform="matrix(1.63358,0,0,0.963327,-1502.23,862.465)">
                <path d="M492.231,301.763L491.47,301.394L522.511,236.891L523.278,237.262L492.231,301.763Z" style="fill:rgb(0,75,255);fill-rule:nonzero;"></path>
            </g>
            <g transform="matrix(1.63358,0,0,0.963327,-1502.23,862.465)">
                <path d="M634.161,349.494L550.855,329.218L551.059,328.397L634.358,348.666L634.161,349.494Z" style="fill:rgb(0,75,255);fill-rule:nonzero;"></path>
            </g>
            <g transform="matrix(1.63358,0,0,0.963327,-1502.23,862.465)">
                <path d="M634.633,349.285L633.891,348.875L665.605,291.512L666.348,291.918L634.633,349.285Z" style="fill:rgb(0,75,255);fill-rule:nonzero;"></path>
            </g>
            <g transform="matrix(1.63358,0,0,0.963327,-1502.23,862.465)">
                <path d="M700.176,319.603L665.712,292.045L666.241,291.385L700.705,318.94L700.176,319.603Z" style="fill:rgb(0,75,255);fill-rule:nonzero;"></path>
            </g>
            <g transform="matrix(1.63358,0,0,0.963327,-1502.23,862.465)">
                <path d="M634.433,349.464L634.085,348.691L700.267,318.887L700.614,319.658L634.433,349.464Z" style="fill:rgb(0,75,255);fill-rule:nonzero;"></path>
            </g>
            <g transform="matrix(1.63358,0,0,0.963327,-1502.23,862.465)">
                <path d="M700.788,319.516L700.092,319.032L744.315,254.908L745.009,255.39L700.788,319.516Z" style="fill:rgb(0,75,255);fill-rule:nonzero;"></path>
            </g>
            <g transform="matrix(1.63358,0,0,0.963327,-1502.23,862.465)">
                <path d="M666.155,292.098L665.798,291.33L744.485,254.764L744.842,255.531L666.155,292.098Z" style="fill:rgb(0,75,255);fill-rule:nonzero;"></path>
            </g>
            <g transform="matrix(1.63358,0,0,0.963327,-1502.23,862.465)">
                <path d="M744.389,253.499L743.565,253.686L729.75,192.853L730.573,192.666L744.389,253.499Z" style="fill:rgb(0,75,255);fill-rule:nonzero;"></path>
            </g>
            <g transform="matrix(1.63358,0,0,0.963327,-1502.23,862.465)">
                <path d="M730.581,192.684L729.745,192.833L715.01,108.853L715.846,108.704L730.581,192.684Z" style="fill:rgb(0,75,255);fill-rule:nonzero;"></path>
            </g>
            <g transform="matrix(1.63358,0,0,0.963327,-1502.23,862.465)">
                <path d="M747.046,182.222L746.269,182.551L715.037,108.941L715.82,108.614L747.046,182.222Z" style="fill:rgb(0,75,255);fill-rule:nonzero;"></path>
            </g>
            <g transform="matrix(1.63358,0,0,0.963327,-1502.23,862.465)">
                <path d="M743.304,255.337L742.455,255.297L746.23,182.365L747.079,182.408L743.304,255.337Z" style="fill:rgb(0,75,255);fill-rule:nonzero;"></path>
            </g>
            <g transform="matrix(1.63358,0,0,0.963327,-1502.23,862.465)">
                <path d="M716.978,108.959L659.689,70.402L660.161,69.695L717.454,108.257L716.978,108.959Z" style="fill:rgb(0,75,255);fill-rule:nonzero;"></path>
            </g>
            <g transform="matrix(1.63358,0,0,0.963327,-1502.23,862.465)">
                <path d="M659.689,68.678L576.597,54.508L576.738,53.675L659.831,67.843L659.689,68.678Z" style="fill:rgb(0,75,255);fill-rule:nonzero;"></path>
            </g>
            <g transform="matrix(1.63358,0,0,0.963327,-1502.23,862.465)">
                <path d="M614.463,226.118L613.657,225.864L641.48,138.606L642.289,138.867L614.463,226.118Z" style="fill:rgb(0,75,255);fill-rule:nonzero;"></path>
            </g>
            <g transform="matrix(1.63358,0,0,0.963327,-1502.23,862.465)">
                <path d="M524.07,234.972L482.058,211.362L482.473,210.624L524.489,234.233L524.07,234.972Z" style="fill:rgb(0,75,255);fill-rule:nonzero;"></path>
            </g>
            <g transform="matrix(1.63358,0,0,0.963327,-1502.23,862.465)">
                <path d="M481.459,209.525L480.661,209.806L461.7,155.579L462.498,155.295L481.459,209.525Z" style="fill:rgb(0,75,255);fill-rule:nonzero;"></path>
            </g>
            <g transform="matrix(1.63358,0,0,0.963327,-1502.23,862.465)">
                <path d="M683.589,187.28L682.806,187.603L639.408,82.185L640.188,81.861L683.589,187.28Z" style="fill:rgb(0,75,255);fill-rule:nonzero;"></path>
            </g>
            <g transform="matrix(1.63358,0,0,0.963327,-1502.23,862.465)">
                <path d="M664.026,293.453L663.196,293.302L682.78,187.364L683.616,187.519L664.026,293.453Z" style="fill:rgb(0,75,255);fill-rule:nonzero;"></path>
            </g>
            <g transform="matrix(1.63358,0,0,0.963327,-1502.23,862.465)">
                <path d="M555.659,353.958L491.583,301.909L492.118,301.249L556.194,353.302L555.659,353.958Z" style="fill:rgb(0,75,255);fill-rule:nonzero;"></path>
            </g>
            <g transform="matrix(1.63358,0,0,0.963327,-1502.23,862.465)">
                <path d="M634.283,349.502L555.95,354.054L555.902,353.206L634.235,348.654L634.283,349.502Z" style="fill:rgb(0,75,255);fill-rule:nonzero;"></path>
            </g>
            <g transform="matrix(1.63358,0,0,0.963327,-1502.23,862.465)">
                <path d="M662.771,75.656C659.076,77.284 654.765,75.613 653.136,71.919C651.509,68.23 653.179,63.915 656.872,62.285C660.563,60.659 664.876,62.334 666.505,66.023C668.131,69.717 666.459,74.027 662.771,75.656Z" style="fill:rgb(0,75,255);fill-rule:nonzero;"></path>
            </g>
            <g transform="matrix(1.63358,0,0,0.963327,-1502.23,862.465)">
                <path d="M579.773,63.165C576.08,64.794 571.771,63.122 570.142,59.43C568.515,55.739 570.185,51.426 573.878,49.798C577.569,48.169 581.882,49.844 583.511,53.535C585.14,57.226 583.465,61.538 579.773,63.165Z" style="fill:rgb(0,75,255);fill-rule:nonzero;"></path>
            </g>
            <g transform="matrix(1.63358,0,0,0.963327,-1502.23,862.465)">
                <path d="M639.021,88.201C635.329,89.829 631.018,88.157 629.388,84.464C627.759,80.774 629.431,76.459 633.125,74.831C636.816,73.204 641.131,74.878 642.758,78.567C644.387,82.261 642.712,86.573 639.021,88.201Z" style="fill:rgb(0,75,255);fill-rule:nonzero;"></path>
            </g>
            <g transform="matrix(1.63358,0,0,0.963327,-1502.23,862.465)">
                <path d="M720.163,115.294C716.474,116.922 712.157,115.249 710.53,111.56C708.901,107.866 710.575,103.554 714.267,101.927C717.958,100.298 722.273,101.969 723.902,105.661C725.528,109.353 723.856,113.666 720.163,115.294Z" style="fill:rgb(0,75,255);fill-rule:nonzero;"></path>
            </g>
            <g transform="matrix(1.63358,0,0,0.963327,-1502.23,862.465)">
                <path d="M643.274,146.107C639.583,147.735 635.271,146.061 633.642,142.371C632.016,138.678 633.688,134.368 637.379,132.739C641.07,131.11 645.385,132.782 647.015,136.475C648.641,140.165 646.969,144.479 643.274,146.107Z" style="fill:rgb(0,75,255);fill-rule:nonzero;"></path>
            </g>
            <g transform="matrix(1.63358,0,0,0.963327,-1502.23,862.465)">
                <path d="M537.947,130.55C534.253,132.178 529.941,130.503 528.313,126.814C526.686,123.12 528.358,118.81 532.049,117.181C535.74,115.552 540.056,117.224 541.682,120.917C543.311,124.606 541.636,128.922 537.947,130.55Z" style="fill:rgb(0,75,255);fill-rule:nonzero;"></path>
            </g>
            <g transform="matrix(1.63358,0,0,0.963327,-1502.23,862.465)">
                <path d="M484.008,216.35C480.316,217.978 476.005,216.303 474.378,212.614C472.746,208.923 474.419,204.61 478.112,202.983C481.804,201.353 486.116,203.024 487.745,206.719C489.372,210.407 487.699,214.722 484.008,216.35Z" style="fill:rgb(0,75,255);fill-rule:nonzero;"></path>
            </g>
            <g transform="matrix(1.63358,0,0,0.963327,-1502.23,862.465)">
                <path d="M527.397,243.073C523.706,244.704 519.393,243.032 517.765,239.338C516.136,235.645 517.81,231.333 521.502,229.705C525.193,228.077 529.506,229.749 531.138,233.441C532.764,237.135 531.092,241.444 527.397,243.073Z" style="fill:rgb(0,75,255);fill-rule:nonzero;"></path>
            </g>
            <g transform="matrix(1.63358,0,0,0.963327,-1502.23,862.465)">
                <path d="M593.468,189.144C589.776,190.772 585.462,189.098 583.835,185.407C582.206,181.714 583.878,177.401 587.572,175.773C591.264,174.145 595.575,175.817 597.204,179.51C598.831,183.199 597.159,187.516 593.468,189.144Z" style="fill:rgb(0,75,255);fill-rule:nonzero;"></path>
            </g>
            <g transform="matrix(1.63358,0,0,0.963327,-1502.23,862.465)">
                <path d="M615.712,229.883C612.021,231.511 607.708,229.839 606.082,226.149C604.453,222.456 606.122,218.142 609.816,216.514C613.508,214.884 617.82,216.559 619.452,220.253C621.075,223.941 619.403,228.253 615.712,229.883Z" style="fill:rgb(0,75,255);fill-rule:nonzero;"></path>
            </g>
            <g transform="matrix(1.63358,0,0,0.963327,-1502.23,862.465)">
                <path d="M572.391,273.74C568.697,275.368 564.385,273.693 562.759,270.004C561.13,266.311 562.802,262.001 566.493,260.373C570.185,258.744 574.499,260.415 576.125,264.107C577.755,267.798 576.08,272.112 572.391,273.74Z" style="fill:rgb(0,75,255);fill-rule:nonzero;"></path>
            </g>
            <g transform="matrix(1.63358,0,0,0.963327,-1502.23,862.465)">
                <path d="M666.074,295.712C662.38,297.34 658.067,295.668 656.438,291.977C654.813,288.285 656.487,283.974 660.179,282.347C663.87,280.718 668.182,282.39 669.809,286.079C671.438,289.77 669.763,294.082 666.074,295.712Z" style="fill:rgb(0,75,255);fill-rule:nonzero;"></path>
            </g>
            <g transform="matrix(1.63358,0,0,0.963327,-1502.23,862.465)">
                <path d="M685.423,196.089C681.731,197.718 677.417,196.046 675.79,192.353C674.161,188.663 675.836,184.35 679.527,182.722C683.219,181.092 687.533,182.769 689.159,186.458C690.789,190.151 689.114,194.461 685.423,196.089Z" style="fill:rgb(0,75,255);fill-rule:nonzero;"></path>
            </g>
            <g transform="matrix(1.63358,0,0,0.963327,-1502.23,862.465)">
                <path d="M730.305,199.954C726.613,201.582 722.301,199.909 720.675,196.22C719.046,192.526 720.718,188.212 724.409,186.585C728.098,184.957 732.415,186.63 734.044,190.324C735.671,194.013 733.993,198.325 730.305,199.954Z" style="fill:rgb(0,75,255);fill-rule:nonzero;"></path>
            </g>
            <g transform="matrix(1.63358,0,0,0.963327,-1502.23,862.465)">
                <path d="M750.446,189.299C746.755,190.927 742.442,189.256 740.813,185.562C739.188,181.873 740.856,177.559 744.551,175.931C748.242,174.301 752.554,175.978 754.184,179.668C755.81,183.36 754.14,187.671 750.446,189.299Z" style="fill:rgb(0,75,255);fill-rule:nonzero;"></path>
            </g>
            <g transform="matrix(1.63358,0,0,0.963327,-1502.23,862.465)">
                <path d="M745.827,262.003C742.136,263.63 737.819,261.956 736.192,258.268C734.563,254.576 736.238,250.258 739.93,248.63C743.623,247.002 747.933,248.678 749.562,252.372C751.188,256.062 749.521,260.374 745.827,262.003Z" style="fill:rgb(0,75,255);fill-rule:nonzero;"></path>
            </g>
            <g transform="matrix(1.63358,0,0,0.963327,-1502.23,862.465)">
                <path d="M702.256,324.117C698.564,325.745 694.252,324.074 692.62,320.381C690.994,316.691 692.666,312.378 696.36,310.747C700.052,309.122 704.366,310.794 705.993,314.484C707.622,318.177 705.949,322.489 702.256,324.117Z" style="fill:rgb(0,75,255);fill-rule:nonzero;"></path>
            </g>
            <g transform="matrix(1.63358,0,0,0.963327,-1502.23,862.465)">
                <path d="M640.622,356.034C636.928,357.662 632.613,355.987 630.987,352.299C629.36,348.607 631.032,344.293 634.724,342.664C638.415,341.037 642.73,342.711 644.358,346.4C645.985,350.09 644.313,354.404 640.622,356.034Z" style="fill:rgb(0,75,255);fill-rule:nonzero;"></path>
            </g>
            <g transform="matrix(1.63358,0,0,0.963327,-1502.23,862.465)">
                <path d="M554.836,335.111C551.147,336.739 546.83,335.064 545.203,331.374C543.574,327.681 545.249,323.369 548.94,321.74C552.632,320.112 556.944,321.785 558.573,325.478C560.199,329.168 558.527,333.482 554.836,335.111Z" style="fill:rgb(0,75,255);fill-rule:nonzero;"></path>
            </g>
            <g transform="matrix(1.63358,0,0,0.963327,-1502.23,862.465)">
                <path d="M558.874,360.312C555.181,361.941 550.868,360.27 549.239,356.577C547.615,352.887 549.285,348.572 552.979,346.944C556.668,345.313 560.982,346.991 562.611,350.68C564.238,354.374 562.565,358.685 558.874,360.312Z" style="fill:rgb(0,75,255);fill-rule:nonzero;"></path>
            </g>
            <g transform="matrix(1.63358,0,0,0.963327,-1502.23,862.465)">
                <path d="M494.801,308.264C491.106,309.893 486.795,308.222 485.169,304.527C483.539,300.834 485.212,296.522 488.903,294.895C492.597,293.266 496.906,294.938 498.535,298.631C500.167,302.324 498.492,306.636 494.801,308.264Z" style="fill:rgb(0,75,255);fill-rule:nonzero;"></path>
            </g>
            <g transform="matrix(1.63358,0,0,0.963327,-1502.23,862.465)">
                <path d="M467.732,241.532C464.044,243.16 459.729,241.489 458.103,237.798C456.471,234.106 458.146,229.792 461.837,228.161C465.528,226.533 469.841,228.21 471.472,231.902C473.096,235.591 471.424,239.904 467.732,241.532Z" style="fill:rgb(0,75,255);fill-rule:nonzero;"></path>
            </g>
            <g transform="matrix(1.63358,0,0,0.963327,-1502.23,862.465)">
                <path d="M465.366,165.091C461.675,166.719 457.362,165.048 455.733,161.355C454.104,157.661 455.779,153.352 459.471,151.72C463.162,150.094 467.474,151.766 469.103,155.46C470.732,159.149 469.058,163.463 465.366,165.091Z" style="fill:rgb(0,75,255);fill-rule:nonzero;"></path>
            </g>
            <g transform="matrix(1.63358,0,0,0.963327,-1502.23,862.465)">
                <path d="M512.675,95.878C508.983,97.507 504.669,95.831 503.04,92.142C501.411,88.449 503.088,84.139 506.779,82.511C510.469,80.882 514.78,82.553 516.409,86.245C518.036,89.938 516.366,94.251 512.675,95.878Z" style="fill:rgb(0,75,255);fill-rule:nonzero;"></path>
            </g>
            <g transform="matrix(1.63358,0,0,0.963327,-1502.23,862.465)">
                <path d="M613.104,222.731L612.735,221.975L681.05,188.278L681.427,189.038L613.104,222.731Z" style="fill:rgb(0,75,255);fill-rule:nonzero;"></path>
            </g>
            <g transform="matrix(1.63358,0,0,0.963327,-1502.23,862.465)">
                <path d="M742.352,252.764L679.998,188.176L680.606,187.589L742.962,252.181L742.352,252.764Z" style="fill:rgb(0,75,255);fill-rule:nonzero;"></path>
            </g>
            <g transform="matrix(1.63358,0,0,0.963327,-1502.23,862.465)">
                <path d="M637.05,346.096L636.216,346.249L613.645,226.071L614.476,225.913L637.05,346.096Z" style="fill:rgb(0,75,255);fill-rule:nonzero;"></path>
            </g>
            <g transform="matrix(1.63358,0,0,0.963327,-1502.23,862.465)">
                <path d="M612.736,366.395C583.433,366.395 559.178,364.002 555.049,360.883C555.339,360.918 555.633,360.936 555.927,360.936C556.913,360.936 557.914,360.736 558.874,360.312C560.587,359.557 561.866,358.223 562.581,356.641C572.746,354.748 591.403,353.479 612.736,353.479C619.45,353.479 625.9,353.604 631.903,353.836C633.295,355.629 635.445,356.657 637.677,356.657C638.662,356.657 639.663,356.457 640.622,356.034C641.522,355.637 642.302,355.08 642.943,354.412C659.789,355.544 671.043,357.595 671.043,359.937C671.043,363.505 644.938,366.395 612.736,366.395Z" style="fill:rgb(202,209,225);fill-rule:nonzero;"></path>
            </g>
            <g transform="matrix(1.63358,0,0,0.963327,-1502.23,862.465)">
                <path d="M637.677,356.657C635.445,356.657 633.295,355.629 631.903,353.836C635.786,353.985 639.482,354.179 642.943,354.412C642.302,355.08 641.522,355.637 640.622,356.034C639.663,356.457 638.662,356.657 637.677,356.657Z" style="fill:rgb(0,75,255);fill-rule:nonzero;"></path>
            </g>
            <g transform="matrix(1.63358,0,0,0.963327,-1502.23,862.465)">
                <path d="M555.927,360.936C555.633,360.936 555.339,360.918 555.049,360.883C554.64,360.574 554.429,360.259 554.429,359.937C554.429,358.733 557.403,357.606 562.581,356.641C561.866,358.223 560.587,359.557 558.874,360.312C557.914,360.736 556.913,360.936 555.927,360.936Z" style="fill:rgb(0,75,255);fill-rule:nonzero;"></path>
            </g>
        </g>
    </g>
</svg>
