<svg viewBox="0 0 1835 519" xmlns="http://www.w3.org/2000/svg" xml:space="preserve" style="fill-rule:evenodd;clip-rule:evenodd;stroke-linejoin:round;stroke-miterlimit:2"><path d="M1188.04 923.672h4.85v16.2c-.4.133-.97.283-1.72.45-.75.167-1.62.333-2.6.5-.99.167-2.06.308-3.23.425-1.17.117-2.35.175-3.55.175-2.43 0-4.65-.4-6.65-1.2-2-.8-3.72-1.967-5.15-3.5-1.43-1.533-2.54-3.417-3.32-5.65-.79-2.233-1.18-4.8-1.18-7.7 0-2.9.44-5.475 1.33-7.725.88-2.25 2.07-4.142 3.57-5.675a15.06 15.06 0 0 1 5.28-3.5c2.01-.8 4.17-1.2 6.47-1.2 1.57 0 2.96.1 4.18.3 1.21.2 2.26.433 3.12.7.87.267 1.58.533 2.13.8.55.267.92.467 1.12.6l-1.55 4.05c-.97-.633-2.25-1.158-3.85-1.575a19.33 19.33 0 0 0-4.9-.625c-1.77 0-3.37.317-4.82.95-1.45.633-2.69 1.55-3.7 2.75-1.02 1.2-1.81 2.658-2.38 4.375-.57 1.717-.85 3.642-.85 5.775 0 2.067.24 3.95.73 5.65.48 1.7 1.21 3.158 2.2 4.375a9.962 9.962 0 0 0 3.65 2.825c1.45.667 3.16 1 5.12 1 1.4 0 2.59-.075 3.58-.225.98-.15 1.69-.292 2.12-.425v-12.9ZM1226.24 923.372c0-2.967.44-5.583 1.33-7.85.88-2.267 2.08-4.158 3.6-5.675a14.809 14.809 0 0 1 5.3-3.425c2.01-.767 4.15-1.15 6.42-1.15 2.23 0 4.34.383 6.33 1.15a14.76 14.76 0 0 1 5.22 3.425c1.5 1.517 2.69 3.408 3.58 5.675.88 2.267 1.32 4.883 1.32 7.85 0 2.967-.44 5.583-1.32 7.85-.89 2.267-2.08 4.158-3.58 5.675a14.76 14.76 0 0 1-5.22 3.425c-1.99.767-4.1 1.15-6.33 1.15-2.27 0-4.41-.383-6.42-1.15a14.809 14.809 0 0 1-5.3-3.425c-1.52-1.517-2.72-3.408-3.6-5.675-.89-2.267-1.33-4.883-1.33-7.85Zm5.1 0c0 2.1.27 4.008.8 5.725.53 1.717 1.29 3.175 2.28 4.375a9.911 9.911 0 0 0 3.6 2.775c1.41.65 3.01.975 4.77.975 1.77 0 3.35-.325 4.75-.975a10.1 10.1 0 0 0 3.58-2.775c.98-1.2 1.74-2.658 2.27-4.375s.8-3.625.8-5.725c0-2.1-.27-4.008-.8-5.725-.53-1.717-1.29-3.175-2.27-4.375a10.1 10.1 0 0 0-3.58-2.775c-1.4-.65-2.98-.975-4.75-.975-1.76 0-3.36.325-4.77.975a9.911 9.911 0 0 0-3.6 2.775c-.99 1.2-1.75 2.658-2.28 4.375-.53 1.717-.8 3.625-.8 5.725Z" style="fill:#ff9b00;fill-rule:nonzero" transform="matrix(6.45439 0 0 6.4544 -6938.848 -5809.004)"/><path d="M1289.39 934.022v6.7h-23.15v-34.65h7.8v27.95h15.35ZM1319.19 940.722c-.39-1.204-.8-2.441-1.25-3.71-.44-1.269-.88-2.532-1.32-3.79h-13.53l-1.32 3.801c-.44 1.27-.85 2.503-1.23 3.699h-8.1a679.65 679.65 0 0 1 3.71-10.35c1.17-3.167 2.32-6.15 3.44-8.95 1.12-2.8 2.22-5.458 3.31-7.975 1.09-2.517 2.21-4.975 3.38-7.375h7.4c1.14 2.4 2.26 4.858 3.36 7.375a248.83 248.83 0 0 1 3.34 7.975c1.13 2.8 2.27 5.783 3.44 8.95a512.77 512.77 0 0 1 3.72 10.35h-8.35Zm-9.37-26.8c-.18.503-.43 1.188-.77 2.054-.33.866-.71 1.867-1.14 3.002-.43 1.135-.91 2.385-1.44 3.75-.53 1.365-1.06 2.796-1.61 4.294h9.91c-.53-1.502-1.05-2.938-1.54-4.307-.5-1.369-.97-2.621-1.42-3.757-.45-1.135-.84-2.136-1.18-3.001-.33-.865-.61-1.543-.81-2.035ZM1343.54 941.172c-1.9 0-3.79-.058-5.67-.175a40.264 40.264 0 0 1-5.88-.825v-33.6c1.6-.3 3.35-.525 5.25-.675 1.9-.15 3.67-.225 5.3-.225 2.2 0 4.23.158 6.08.475 1.85.317 3.44.858 4.77 1.625 1.34.767 2.38 1.775 3.13 3.025s1.12 2.792 1.12 4.625c0 2.767-1.33 4.95-4 6.55 2.2.833 3.7 1.967 4.5 3.4.8 1.433 1.2 3.05 1.2 4.85 0 3.633-1.32 6.367-3.97 8.2-2.65 1.833-6.59 2.75-11.83 2.75Zm-3.95-15.55v8.95c.57.067 1.19.117 1.85.15.67.033 1.4.05 2.2.05 2.34 0 4.22-.333 5.65-1 1.44-.667 2.15-1.9 2.15-3.7 0-1.6-.6-2.742-1.8-3.425-1.2-.683-2.91-1.025-5.15-1.025h-4.9Zm0-5.95h3.8c2.4 0 4.12-.308 5.15-.925 1.04-.617 1.55-1.608 1.55-2.975 0-1.4-.53-2.383-1.6-2.95-1.07-.567-2.63-.85-4.7-.85-.67 0-1.38.008-2.15.025-.76.017-1.45.058-2.05.125v7.55Z" style="fill:#004bff;fill-rule:nonzero" transform="matrix(6.45439 0 0 6.4544 -6938.848 -5809.004)"/><path d="M1180.12 934.13c0 1.123-.21 2.124-.62 3.003a6.217 6.217 0 0 1-1.77 2.222c-.77.602-1.68 1.058-2.74 1.367-1.05.309-2.22.464-3.49.464a13.375 13.375 0 0 1-4.14-.647 9.726 9.726 0 0 1-1.42-.586c-.39-.203-.68-.386-.86-.549-.18-.163-.31-.391-.39-.684-.08-.293-.12-.692-.12-1.196 0-.309.02-.57.05-.781.03-.212.07-.383.12-.513.05-.13.12-.224.21-.281a.549.549 0 0 1 .3-.085c.18 0 .45.11.8.329.35.22.78.46 1.29.721.51.26 1.12.5 1.82.72.7.22 1.5.329 2.42.329.68 0 1.3-.073 1.85-.219a4.463 4.463 0 0 0 1.44-.647c.41-.285.72-.647.94-1.087.22-.439.33-.96.33-1.562 0-.619-.16-1.14-.48-1.563-.31-.423-.73-.797-1.25-1.123-.52-.325-1.11-.614-1.76-.866-.65-.253-1.32-.517-2.01-.794-.7-.277-1.37-.59-2.03-.94a7.706 7.706 0 0 1-1.77-1.282 5.903 5.903 0 0 1-1.26-1.806c-.31-.7-.47-1.538-.47-2.515 0-.863.16-1.689.5-2.478.33-.789.83-1.481 1.5-2.075.67-.594 1.5-1.07 2.5-1.428 1-.358 2.17-.537 3.5-.537.59 0 1.18.048 1.76.146.59.098 1.12.22 1.59.366.47.147.87.305 1.21.476.33.171.58.322.75.452.18.13.29.244.35.342.05.097.09.207.12.329.02.122.05.273.07.452.03.179.04.399.04.659 0 .277-.01.517-.04.72-.02.204-.06.371-.12.501a.691.691 0 0 1-.21.281.454.454 0 0 1-.27.085c-.14 0-.35-.089-.63-.268a9.18 9.18 0 0 0-1.08-.574c-.44-.204-.95-.395-1.55-.574-.59-.179-1.27-.268-2.03-.268-.69 0-1.29.077-1.81.231-.52.155-.95.375-1.28.66-.34.284-.59.622-.76 1.013-.17.39-.26.814-.26 1.269 0 .635.17 1.168.49 1.599.33.432.75.81 1.27 1.136.52.325 1.12.618 1.78.879.67.26 1.35.529 2.04.805.69.277 1.38.586 2.05.928.68.342 1.28.757 1.8 1.245a5.5 5.5 0 0 1 1.25 1.758c.32.684.48 1.497.48 2.441ZM1229.63 928.173c0 .635-.16 1.087-.48 1.355-.31.269-.68.403-1.09.403h-14.47c0 1.221.12 2.319.37 3.296.25.977.66 1.815 1.23 2.515.57.7 1.31 1.237 2.23 1.611.92.374 2.04.562 3.36.562 1.05 0 1.98-.086 2.8-.257.81-.171 1.52-.362 2.12-.574.6-.211 1.09-.402 1.47-.573.39-.171.68-.257.87-.257.12 0 .22.029.31.086.09.057.16.142.21.256.05.114.08.273.11.476.02.204.03.452.03.745 0 .211 0 .395-.02.549-.02.155-.04.293-.06.415-.02.122-.07.232-.12.33-.06.097-.13.191-.22.281-.09.089-.36.236-.8.439-.43.204-1 .403-1.7.598-.7.196-1.51.37-2.43.525-.92.155-1.9.232-2.95.232-1.8 0-3.38-.252-4.75-.757-1.35-.504-2.5-1.253-3.42-2.246-.93-.993-1.63-2.238-2.1-3.735-.48-1.498-.71-3.239-.71-5.225 0-1.888.24-3.585.73-5.09.49-1.506 1.19-2.783 2.11-3.833a9.234 9.234 0 0 1 3.33-2.417c1.31-.562 2.76-.842 4.37-.842 1.73 0 3.2.276 4.41.83 1.21.553 2.21 1.298 2.99 2.233a8.91 8.91 0 0 1 1.72 3.296c.37 1.262.55 2.609.55 4.041v.732Zm-4.05-1.196c.05-2.116-.42-3.776-1.41-4.98-.99-1.205-2.46-1.807-4.41-1.807-1 0-1.88.187-2.63.561-.75.375-1.38.871-1.89 1.49-.51.618-.9 1.338-1.18 2.16a8.871 8.871 0 0 0-.47 2.576h11.99ZM1273.6 919.58c0 .358-.01.659-.02.903a2.35 2.35 0 0 1-.1.574.896.896 0 0 1-.18.317.437.437 0 0 1-.31.11 1.3 1.3 0 0 1-.47-.11 9.948 9.948 0 0 0-1.43-.427 4.393 4.393 0 0 0-.96-.098c-.4 0-.8.081-1.19.244-.39.163-.8.432-1.23.806-.43.374-.89.871-1.36 1.489-.47.619-.99 1.376-1.56 2.271v14.453c0 .13-.03.24-.1.329-.06.09-.17.167-.32.232a2.19 2.19 0 0 1-.61.147c-.26.032-.59.049-1 .049-.39 0-.71-.017-.97-.049a2.57 2.57 0 0 1-.63-.147c-.15-.065-.26-.142-.31-.232a.576.576 0 0 1-.09-.329v-21.973c0-.13.03-.24.07-.329.05-.09.15-.171.3-.245.14-.073.33-.122.56-.146.23-.024.53-.037.9-.037.36 0 .66.013.89.037.24.024.42.073.55.146.13.074.23.155.28.245.06.089.09.199.09.329v3.198c.6-.879 1.17-1.595 1.7-2.148.52-.553 1.02-.989 1.5-1.306.47-.318.94-.537 1.4-.659.46-.122.93-.183 1.4-.183.22 0 .46.012.72.036.27.025.55.069.85.134.29.066.55.139.79.22.24.082.4.163.5.244.1.082.16.159.2.232.03.073.06.167.08.281.03.114.04.281.05.5.01.22.01.517.01.892ZM1321.67 918.09c0 .065 0 .135-.01.208-.01.073-.02.15-.04.232-.01.081-.03.171-.06.268-.02.098-.05.204-.08.318l-7.5 20.874a1.28 1.28 0 0 1-.25.439 1.11 1.11 0 0 1-.48.269c-.21.065-.48.11-.81.134-.32.024-.73.037-1.22.037-.48 0-.89-.017-1.22-.049a3.996 3.996 0 0 1-.79-.147c-.2-.065-.36-.154-.48-.268-.11-.114-.2-.252-.26-.415l-7.47-20.874a6.812 6.812 0 0 1-.16-.513 3.063 3.063 0 0 1-.08-.33c0-.073-.01-.134-.01-.183 0-.13.03-.244.1-.341.06-.098.17-.175.33-.232.15-.057.36-.094.61-.11.25-.017.56-.025.94-.025.47 0 .85.013 1.13.037.29.024.51.069.66.134.16.065.27.147.34.244.08.098.15.22.21.367l6.2 18.115.1.293.07-.293 6.13-18.115a.967.967 0 0 1 .17-.367.89.89 0 0 1 .36-.244c.15-.065.36-.11.63-.134.27-.024.62-.037 1.06-.037.38 0 .69.008.93.025.25.016.44.057.58.122.13.065.23.142.29.232.05.089.08.199.08.329ZM1355.27 940.112c0 .13-.03.24-.1.329-.06.09-.17.167-.32.232a2.19 2.19 0 0 1-.61.147c-.26.032-.59.049-1 .049-.39 0-.71-.017-.98-.049a2.48 2.48 0 0 1-.62-.147c-.15-.065-.26-.142-.32-.232a.664.664 0 0 1-.08-.329v-21.973c0-.114.03-.22.08-.317.06-.098.17-.179.32-.244.16-.065.36-.114.62-.147.27-.032.59-.049.98-.049.41 0 .74.017 1 .049.26.033.47.082.61.147.15.065.26.146.32.244.07.097.1.203.1.317v21.973Zm.46-29.395c0 .944-.18 1.587-.54 1.929-.35.342-1.01.513-1.97.513-.95 0-1.59-.167-1.94-.501-.35-.333-.53-.964-.53-1.892 0-.944.18-1.587.54-1.929.36-.341 1.02-.512 1.98-.512.94 0 1.59.167 1.94.5.35.334.52.965.52 1.892ZM1403.51 936.767c0 .277-.01.517-.02.72a2.89 2.89 0 0 1-.09.513c-.04.138-.09.26-.15.366-.05.106-.18.261-.39.464-.2.204-.55.456-1.03.757-.49.301-1.04.57-1.65.806-.61.236-1.28.427-1.99.573-.72.147-1.46.22-2.22.22-1.58 0-2.98-.26-4.2-.781a7.937 7.937 0 0 1-3.07-2.283c-.82-1.001-1.45-2.23-1.88-3.686-.43-1.457-.64-3.138-.64-5.042 0-2.165.26-4.024.79-5.579.53-1.554 1.25-2.828 2.17-3.82.92-.993 2-1.73 3.25-2.21 1.24-.48 2.59-.72 4.04-.72.7 0 1.38.065 2.04.195.66.13 1.26.301 1.82.513.55.212 1.04.456 1.47.732.43.277.75.513.94.708.2.196.33.35.41.464.07.114.13.248.18.403.05.155.08.33.1.525.01.195.02.439.02.732 0 .635-.07 1.079-.22 1.331-.14.252-.32.378-.54.378-.24 0-.52-.134-.84-.402-.31-.269-.72-.566-1.21-.892-.48-.325-1.07-.622-1.77-.891-.69-.268-1.5-.403-2.45-.403-1.94 0-3.42.745-4.46 2.234-1.03 1.49-1.54 3.65-1.54 6.482 0 1.416.13 2.657.4 3.723.27 1.067.66 1.958 1.18 2.674a4.866 4.866 0 0 0 1.92 1.599c.75.35 1.62.525 2.6.525.93 0 1.74-.147 2.44-.44.7-.293 1.31-.614 1.82-.964s.94-.667 1.29-.952c.35-.285.62-.427.82-.427.11 0 .21.032.29.097.09.065.15.175.21.33.06.154.1.35.12.586.03.236.04.517.04.842ZM1452.61 928.173c0 .635-.16 1.087-.48 1.355a1.66 1.66 0 0 1-1.09.403h-14.47c0 1.221.12 2.319.36 3.296.25.977.66 1.815 1.23 2.515.57.7 1.32 1.237 2.23 1.611.92.374 2.04.562 3.36.562 1.05 0 1.98-.086 2.8-.257.82-.171 1.53-.362 2.12-.574.6-.211 1.09-.402 1.47-.573.39-.171.68-.257.88-.257.11 0 .21.029.3.086.09.057.16.142.21.256.05.114.09.273.11.476.03.204.04.452.04.745 0 .211-.01.395-.03.549-.01.155-.03.293-.06.415a.906.906 0 0 1-.12.33c-.06.097-.13.191-.22.281-.09.089-.35.236-.79.439-.44.204-1.01.403-1.71.598-.7.196-1.51.37-2.43.525a17.7 17.7 0 0 1-2.94.232c-1.81 0-3.39-.252-4.75-.757-1.36-.504-2.5-1.253-3.43-2.246-.93-.993-1.63-2.238-2.1-3.735-.47-1.498-.71-3.239-.71-5.225 0-1.888.24-3.585.73-5.09.49-1.506 1.2-2.783 2.12-3.833a9.15 9.15 0 0 1 3.33-2.417c1.3-.562 2.76-.842 4.37-.842 1.72 0 3.19.276 4.41.83 1.21.553 2.2 1.298 2.99 2.233.78.936 1.35 2.035 1.72 3.296.36 1.262.55 2.609.55 4.041v.732Zm-4.06-1.196c.05-2.116-.42-3.776-1.41-4.98-.99-1.205-2.46-1.807-4.41-1.807-1 0-1.87.187-2.63.561-.75.375-1.38.871-1.89 1.49-.51.618-.9 1.338-1.18 2.16a9.209 9.209 0 0 0-.46 2.576h11.98Z" style="fill:#004bff;fill-rule:nonzero" transform="translate(-3130.038 -2647.523) scale(3.31871)"/><path d="M1531.21 1112.48h6.07v26.79H1392.7v-25.32h138.51v-1.47Zm-2.7-78.46H1392.7v-25.01h135.81v25.01Zm.7-91.98H1392.7v-26.415h136.51v26.415Z" style="fill:#ff9b00;fill-rule:nonzero" transform="translate(-583.108 -876.477)"/><path d="m521.947 266.367 16.14-91.047c.278.048.559.08.843.095l-16.091 90.781a7.265 7.265 0 0 0-.892.171ZM488.581 170.952a7.198 7.198 0 0 0-.219-.836l43.651-2.078c-.003.282.01.565.04.848l-43.472 2.066ZM536.212 161.503l-5.075-12.663.786-.324 5.078 12.67a6.868 6.868 0 0 0-.789.317Zm-5.389-13.448-19.996-49.9c.211-.071.421-.152.629-.243l.158-.072 19.995 49.892-.786.323ZM483.412 165.342a7.322 7.322 0 0 0-.833-.186l23.152-67.17c.261.107.528.199.8.276l-23.119 67.08ZM457.572 224.409a7.41 7.41 0 0 0-.881-.092l19.741-46.599c.217.202.445.389.683.562l-19.543 46.129ZM516.544 272.322l-55.202-35.337c.213-.197.412-.405.598-.623l54.797 35.079a7.317 7.317 0 0 0-.193.881ZM492.414 301.696l-34.974-62.847c.291-.042.581-.103.869-.183l34.586 62.151-.394.359.284.313-.371.207Z" style="fill:#004bff;fill-rule:nonzero" transform="translate(-733.598 -80.329) scale(1.63358)"/><path d="m493.07 301.804-.285-.315-.284-.313.394-.359 25.113-22.866c.176.224.362.436.56.635l-25.498 23.218ZM634.978 342.557l.773-51.275a7.412 7.412 0 0 0 .849.013l-.769 50.983a7.578 7.578 0 0 0-.853.279ZM561.09 348.458a6.992 6.992 0 0 0-.64-.567l35.561-30.222.763.461-35.684 30.328Zm36.363-30.904-.763-.462 33.764-28.694c.17.227.353.442.546.644l-33.547 28.512ZM528.255 267.683a7.241 7.241 0 0 0-.715-.491l48.586-45.45c.15.247.314.483.49.706l-48.361 45.235ZM578.82 211.531l-34.861-37.765a7.39 7.39 0 0 0 .622-.575l35.039 37.959c-.07.029-.141.058-.211.089-.202.09-.399.187-.589.292ZM543.409 162.059a7.4 7.4 0 0 0-.727-.432l13.783-23.214 1.302-.536-14.358 24.182Zm13.775-24.858 30.469-51.317c.193.222.398.43.614.625l-29.781 50.156-1.302.536ZM588.599 214.126a7.252 7.252 0 0 0-.48-.695l27.819-19.212a7.274 7.274 0 0 0-.141 1.123l-27.198 18.784Zm36.766-25.392a7.355 7.355 0 0 0-1.098-.267l58.032-40.077c.12.26.254.51.4.749l-57.334 39.595ZM631.223 278.725l-46.184-54.006a7.502 7.502 0 0 0 .799-.372l46.029 53.827a7.105 7.105 0 0 0-.644.551ZM640.736 278.199a7.322 7.322 0 0 0-.701-.476l22.406-32.974c.223.175.455.336.696.484l-22.401 32.966ZM659.668 238.452l-29.872-7.762-.086-.898 30.072 7.815c-.054.279-.093.56-.114.845Zm-30.743-7.988-39.617-10.294c.087-.269.159-.544.214-.821l39.317 10.217.086.898ZM745.523 255.891l-71.761-14.237c.104-.266.192-.538.263-.814l71.665 14.219-.167.832ZM748.974 181.395l-.045-.423-1.149.121-51.586-35.001c.036-.332.049-.667.038-1.003l52.98 35.955-.238.351ZM694.045 140.104a7.285 7.285 0 0 0-.637-.556l19.603-24.517c.229.168.468.322.714.461l-19.68 24.612ZM690.286 138.14a7.256 7.256 0 0 0-.967-.119l-28.714-69.597.328-.049-.063-.417.396-.164 29.02 70.346Z" style="fill:#004bff;fill-rule:nonzero" transform="translate(-733.598 -80.329) scale(1.63358)"/><path d="M599.621 77.659a7.133 7.133 0 0 0-.482-.785l58.025-8.785 3.673.288.033-.421v.002l.063.417-.328.049-60.984 9.235ZM515.749 92.206c.039-.289.061-.58.066-.873l70.356-12.341a7.405 7.405 0 0 0-.209.898l-70.213 12.316ZM515.775 90.463a7.05 7.05 0 0 0-.145-.858l66.49-28.204.164.388-.033.42.109.009-66.585 28.245Z" style="fill:#004bff;fill-rule:nonzero" transform="translate(-733.598 -80.329) scale(1.63358)"/><path d="m660.837 68.377-3.673-.288-74.804-5.871-.109-.009.033-.42.033-.421 78.586 6.167-.066.842ZM454.588 224.534l9.324-65.893.836.12-9.283 65.607a7.436 7.436 0 0 0-.877.166ZM616.823 191.938l-70.331-22.427c.055-.282.094-.567.115-.855l70.714 22.55a7.2 7.2 0 0 0-.498.732ZM633.415 277.276l-4.49-46.812-.086-.898-2.617-27.282c.282-.133.55-.282.806-.445l2.682 27.953.086.898 4.44 46.291c-.276.081-.55.179-.821.295ZM604.08 322.552l-7.306-4.422-.763-.461-66.226-40.082c.16-.234.307-.477.439-.727l66.466 40.232.763.462 7.239 4.381a7.578 7.578 0 0 0-.612.617ZM613.975 321.558a7.376 7.376 0 0 0-.707-.473l17.907-31.867c.208.204.427.393.655.569l-17.855 31.771ZM562.196 349.876a7.282 7.282 0 0 0-.482-.708l41.058-19.092a7.068 7.068 0 0 0 .357.768l-40.933 19.032ZM486.567 167.189a7.179 7.179 0 0 0-.71-.62l44.966-18.514.786-.323 25.575-10.531 1.302-.536 23.576-9.707c.039.284.095.566.168.848l-24.463 10.071-1.302.536-24.542 10.103-.786.324-44.57 18.349Z" style="fill:#004bff;fill-rule:nonzero" transform="translate(-733.598 -80.329) scale(1.63358)"/><path d="M456.384 238.927a7.307 7.307 0 0 1-6.688-4.36 7.305 7.305 0 0 1 4.892-10.033 7.358 7.358 0 0 1 2.984-.125 7.295 7.295 0 0 1 5.491 4.263 7.297 7.297 0 0 1-4.754 9.994 7.227 7.227 0 0 1-1.925.261ZM481.421 179.681a7.336 7.336 0 0 1-4.989-1.963 7.308 7.308 0 0 1 2.035-12.032 7.262 7.262 0 0 1 4.945-.344 7.309 7.309 0 0 1 3.155 1.847 7.283 7.283 0 0 1 1.795 2.927 7.31 7.31 0 0 1-6.941 9.565ZM508.509 98.535a7.304 7.304 0 0 1-2.778-.549 7.277 7.277 0 0 1-3.907-3.81 7.304 7.304 0 0 1 3.738-9.632 7.3 7.3 0 0 1 9.628 3.737c.192.434.339.878.44 1.324a7.05 7.05 0 0 1 .185 1.728 7.3 7.3 0 0 1-4.201 6.507l-.158.072a7.262 7.262 0 0 1-2.947.623ZM539.328 175.426a7.175 7.175 0 0 1-1.241-.106 7.31 7.31 0 0 1 1.229-14.514 7.337 7.337 0 0 1 4.093 1.253 7.262 7.262 0 0 1 2.595 3.108c.13.294.238.592.327.892l-6.037.995.137.838 6.092-1.004a7.202 7.202 0 0 1-.031 2.623 7.335 7.335 0 0 1-2.533 4.255 7.342 7.342 0 0 1-1.689 1.038 7.283 7.283 0 0 1-2.942.622ZM523.766 280.755a7.321 7.321 0 0 1-5.758-2.804 7.31 7.31 0 0 1-.927-1.555 7.26 7.26 0 0 1-.344-4.955 7.294 7.294 0 0 1 5.21-5.074 7.265 7.265 0 0 1 1.81-.23 7.335 7.335 0 0 1 4.498 1.546 7.299 7.299 0 0 1 2.195 2.818 7.297 7.297 0 0 1-.665 7.086 7.266 7.266 0 0 1-3.074 2.545 7.282 7.282 0 0 1-2.945.623ZM609.568 334.694a7.308 7.308 0 0 1-6.796-4.618 7.312 7.312 0 0 1 1.92-8.141 7.313 7.313 0 0 1 4.866-1.861 7.337 7.337 0 0 1 4.417 1.484c.96.726 1.754 1.7 2.274 2.879a7.304 7.304 0 0 1-3.736 9.633 7.283 7.283 0 0 1-2.945.624ZM636.288 291.302a7.338 7.338 0 0 1-5.288-2.26 7.263 7.263 0 0 1-1.399-2.1 7.31 7.31 0 0 1 2.266-8.768 7.317 7.317 0 0 1 2.369-1.193 7.234 7.234 0 0 1 2.045-.294 7.346 7.346 0 0 1 4.455 1.512 7.307 7.307 0 0 1-4.448 13.103ZM582.358 225.232a7.319 7.319 0 0 1-6.232-3.49 7.308 7.308 0 0 1 3.283-10.503c.07-.031.141-.06.211-.089a7.284 7.284 0 0 1 2.732-.533 7.32 7.32 0 0 1 6.69 4.359 7.281 7.281 0 0 1 .266 5.194 7.28 7.28 0 0 1-4.269 4.549 7.263 7.263 0 0 1-2.681.513ZM623.101 202.987a7.304 7.304 0 0 1-6.687-4.358 7.276 7.276 0 0 1 .409-6.691 7.283 7.283 0 0 1 2.081-2.241l2.967 6.016.758-.375-3.002-6.086a7.283 7.283 0 0 1 5.738-.518 7.288 7.288 0 0 1 4.712 4.782l-4.23.446.088.844 4.348-.459a7.314 7.314 0 0 1-7.182 8.64ZM666.959 246.311a7.335 7.335 0 0 1-4.518-1.562 7.265 7.265 0 0 1-2.171-2.799 7.262 7.262 0 0 1-.488-4.343 7.304 7.304 0 0 1 7.167-5.913 7.306 7.306 0 0 1 6.688 4.361 7.28 7.28 0 0 1 .125 5.599 7.268 7.268 0 0 1-3.86 4.034 7.272 7.272 0 0 1-2.943.623ZM688.931 152.627a7.311 7.311 0 0 1-6.632-4.237l-.056-.123a7.272 7.272 0 0 1-.59-3.644l5.006-.825-.137-.835-4.729.779a7.299 7.299 0 0 1 4.186-5.109 7.263 7.263 0 0 1 4.307-.493 7.348 7.348 0 0 1 3.759 1.964 7.277 7.277 0 0 1 1.567 2.267 7.268 7.268 0 0 1 .582 3.721 7.304 7.304 0 0 1-4.318 5.912 7.282 7.282 0 0 1-2.945.623ZM589.309 133.278a7.31 7.31 0 0 1-7.247-6.32 7.312 7.312 0 0 1 7.237-8.294 7.306 7.306 0 0 1 2.504 14.172l-2.868-5.817-.757.376 2.805 5.688a7.3 7.3 0 0 1-1.674.195ZM593.173 88.397a7.333 7.333 0 0 1-5.52-2.513 7.33 7.33 0 0 1-1.482-6.892 7.286 7.286 0 0 1 4.051-4.587 7.258 7.258 0 0 1 2.944-.624 7.317 7.317 0 0 1 6.689 4.359 7.308 7.308 0 0 1-6.682 10.257ZM717.334 116.444a7.33 7.33 0 0 1-4.323-1.413 7.305 7.305 0 0 1 4.317-13.2 7.305 7.305 0 1 1 .006 14.613Z" style="fill:#004bff;fill-rule:nonzero" transform="translate(-733.598 -80.329) scale(1.63358)"/><path d="m621.871 195.713-2.967-6.016-15.843-32.125.871-.143 15.695 31.823 3.002 6.086-.758.375Zm-19.202-38.935-11.686-23.695-2.805-5.688.757-.376 2.868 5.817 11.737 23.798-.871.144Z" style="fill:#004bff;fill-rule:nonzero" transform="translate(-733.598 -80.329) scale(1.63358)"/><path d="m540.431 167.892-.137-.838 6.037-.995 56.338-9.281.871-.144 78.253-12.892 4.729-.779.137.835-5.006.825-77.721 12.806-.871.143-56.538 9.316-6.092 1.004ZM625.935 194.806l-.088-.844 4.23-.446 117.703-12.423 1.149-.121.045.423.045.421-118.736 12.531-4.348.459ZM637.714 81.547l-102.247 40.754-.314-.787 102.248-40.756.313.789Z" style="fill:#004bff;fill-rule:nonzero" transform="translate(-733.598 -80.329) scale(1.63358)"/><path d="m640.751 139.401-.846.044-2.771-58.272.847-.039 2.77 58.267Z" style="fill:#004bff;fill-rule:nonzero" transform="translate(-733.598 -80.329) scale(1.63358)"/><path d="m717.373 109.002-76.888 30.811-.311-.782 76.888-30.813.311.784Z" style="fill:#004bff;fill-rule:nonzero" transform="translate(-733.598 -80.329) scale(1.63358)"/><path d="m717.079 109.011-79.66-27.457.274-.802 79.66 27.458-.274.801ZM636.705 79.985l-60.202-25.503.326-.779 60.205 25.503-.329.779Z" style="fill:#004bff;fill-rule:nonzero" transform="translate(-733.598 -80.329) scale(1.63358)"/><path d="m534.464 120.81-.715-.457 42.562-66.489.713.457-42.56 66.489Z" style="fill:#004bff;fill-rule:nonzero" transform="translate(-733.598 -80.329) scale(1.63358)"/><path d="m509.921 89.566-.39-.744 66.942-35.103.392.75-66.944 35.097Z" style="fill:#004bff;fill-rule:nonzero" transform="translate(-733.598 -80.329) scale(1.63358)"/><path d="M531.976 120.996 509.379 89.44l.689-.491 22.599 31.554-.691.493ZM462.275 155.821l-.352-.769 73.207-33.53.354.771-73.209 33.528Z" style="fill:#004bff;fill-rule:nonzero" transform="translate(-733.598 -80.329) scale(1.63358)"/><path d="m462.445 155.686-.689-.498 47.626-66.239.691.493-47.628 66.244Z" style="fill:#004bff;fill-rule:nonzero" transform="translate(-733.598 -80.329) scale(1.63358)"/><path d="m463.734 235.458-.848.013-1.211-80.029.848-.01 1.211 80.026Z" style="fill:#004bff;fill-rule:nonzero" transform="translate(-733.598 -80.329) scale(1.63358)"/><path d="m524.443 236.813-61.136-.925.012-.847 61.14.925-.016.847Z" style="fill:#004bff;fill-rule:nonzero" transform="translate(-733.598 -80.329) scale(1.63358)"/><path d="m524.114 236.647-62.35-80.951.671-.52 62.353 80.956-.674.515Z" style="fill:#004bff;fill-rule:nonzero" transform="translate(-733.598 -80.329) scale(1.63358)"/><path d="m522.667 239.883-.836-.093 13.059-117.929.838.095-13.061 117.927Z" style="fill:#004bff;fill-rule:nonzero" transform="translate(-733.598 -80.329) scale(1.63358)"/><path d="m592.456 183.62-57.455-61.421.618-.58 57.456 61.42-.619.581Z" style="fill:#004bff;fill-rule:nonzero" transform="translate(-733.598 -80.329) scale(1.63358)"/><path d="m593.052 183.638-.573-.62 47.563-43.905.572.618-47.562 43.907Z" style="fill:#004bff;fill-rule:nonzero" transform="translate(-733.598 -80.329) scale(1.63358)"/><path d="m729.947 193.124-89.835-53.336.432-.73 89.834 53.338-.431.728Z" style="fill:#004bff;fill-rule:nonzero" transform="translate(-733.598 -80.329) scale(1.63358)"/><path d="m664.891 290.105-.703-.476 65.623-97.106.702.474-65.622 97.108ZM524.725 236.711l-.55-.643 64.349-55.031.55.644-64.349 55.03Z" style="fill:#004bff;fill-rule:nonzero" transform="translate(-733.598 -80.329) scale(1.63358)"/><path d="M568.459 266.803 524.21 236.74l.479-.701 44.244 30.064-.474.7Z" style="fill:#004bff;fill-rule:nonzero" transform="translate(-733.598 -80.329) scale(1.63358)"/><path d="m569.103 266.556-.819-.213 21.826-83.99.822.21-21.829 83.993Z" style="fill:#004bff;fill-rule:nonzero" transform="translate(-733.598 -80.329) scale(1.63358)"/><path d="m664.44 290.278-95.844-23.416.2-.823 95.844 23.418-.2.821Z" style="fill:#004bff;fill-rule:nonzero" transform="translate(-733.598 -80.329) scale(1.63358)"/><path d="m551.365 328.925-.816-.234 17.74-62.353.814.23-17.738 62.357ZM550.037 329.903l-.813.221-25.181-93.623.813-.221 25.181 93.623Z" style="fill:#004bff;fill-rule:nonzero" transform="translate(-733.598 -80.329) scale(1.63358)"/><path d="m549.447 330.393-57.78-28.433.37-.762 57.78 28.436-.37.759Z" style="fill:#004bff;fill-rule:nonzero" transform="translate(-733.598 -80.329) scale(1.63358)"/><path d="m492.242 301.411-.778.336-28.54-66.114.778-.336 28.54 66.114Z" style="fill:#004bff;fill-rule:nonzero" transform="translate(-733.598 -80.329) scale(1.63358)"/><path d="m492.231 301.763-.761-.369 31.041-64.503.767.371-31.047 64.501ZM634.161 349.494l-83.306-20.276.204-.821 83.299 20.269-.197.828Z" style="fill:#004bff;fill-rule:nonzero" transform="translate(-733.598 -80.329) scale(1.63358)"/><path d="m634.633 349.285-.742-.41 31.714-57.363.743.406-31.715 57.367Z" style="fill:#004bff;fill-rule:nonzero" transform="translate(-733.598 -80.329) scale(1.63358)"/><path d="m700.176 319.603-34.464-27.558.529-.66 34.464 27.555-.529.663Z" style="fill:#004bff;fill-rule:nonzero" transform="translate(-733.598 -80.329) scale(1.63358)"/><path d="m634.433 349.464-.348-.773 66.182-29.804.347.771-66.181 29.806Z" style="fill:#004bff;fill-rule:nonzero" transform="translate(-733.598 -80.329) scale(1.63358)"/><path d="m700.788 319.516-.696-.484 44.223-64.124.694.482-44.221 64.126Z" style="fill:#004bff;fill-rule:nonzero" transform="translate(-733.598 -80.329) scale(1.63358)"/><path d="m666.155 292.098-.357-.768 78.687-36.566.357.767-78.687 36.567ZM744.389 253.499l-.824.187-13.815-60.833.823-.187 13.816 60.833Z" style="fill:#004bff;fill-rule:nonzero" transform="translate(-733.598 -80.329) scale(1.63358)"/><path d="m730.581 192.684-.836.149-14.735-83.98.836-.149 14.735 83.98Z" style="fill:#004bff;fill-rule:nonzero" transform="translate(-733.598 -80.329) scale(1.63358)"/><path d="m747.046 182.222-.777.329-31.232-73.61.783-.327 31.226 73.608Z" style="fill:#004bff;fill-rule:nonzero" transform="translate(-733.598 -80.329) scale(1.63358)"/><path d="m743.304 255.337-.849-.04 3.775-72.932.849.043-3.775 72.929ZM716.978 108.959l-57.289-38.557.472-.707 57.293 38.562-.476.702ZM659.689 68.678l-83.092-14.17.141-.833 83.093 14.168-.142.835ZM614.463 226.118l-.806-.254 27.823-87.258.809.261-27.826 87.251ZM524.07 234.972l-42.012-23.61.415-.738 42.016 23.609-.419.739ZM481.459 209.525l-.798.281-18.961-54.227.798-.284 18.961 54.23ZM683.589 187.28l-.783.323-43.398-105.418.78-.324 43.401 105.419Z" style="fill:#004bff;fill-rule:nonzero" transform="translate(-733.598 -80.329) scale(1.63358)"/><path d="m664.026 293.453-.83-.151 19.584-105.938.836.155-19.59 105.934ZM555.659 353.958l-64.076-52.049.535-.66 64.076 52.053-.535.656Z" style="fill:#004bff;fill-rule:nonzero" transform="translate(-733.598 -80.329) scale(1.63358)"/><path d="m634.283 349.502-78.333 4.552-.048-.848 78.333-4.552.048.848ZM662.771 75.656a7.306 7.306 0 0 1-9.635-3.737 7.309 7.309 0 0 1 3.736-9.634 7.312 7.312 0 0 1 9.633 3.738 7.31 7.31 0 0 1-3.734 9.633ZM579.773 63.165a7.305 7.305 0 1 1 3.738-9.63 7.302 7.302 0 0 1-3.738 9.63ZM639.021 88.201a7.306 7.306 0 0 1-9.633-3.737 7.304 7.304 0 0 1 3.737-9.633 7.307 7.307 0 0 1 5.896 13.37ZM720.163 115.294a7.304 7.304 0 1 1-5.896-13.367 7.307 7.307 0 0 1 9.635 3.734 7.308 7.308 0 0 1-3.739 9.633ZM643.274 146.107a7.307 7.307 0 0 1-9.632-3.736 7.308 7.308 0 0 1 13.373-5.896 7.307 7.307 0 0 1-3.741 9.632ZM537.947 130.55a7.307 7.307 0 0 1-5.898-13.369 7.304 7.304 0 0 1 9.633 3.736 7.308 7.308 0 0 1-3.735 9.633ZM484.008 216.35a7.305 7.305 0 0 1-9.63-3.736 7.298 7.298 0 0 1 3.734-9.631 7.302 7.302 0 0 1 9.633 3.736 7.307 7.307 0 0 1-3.737 9.631ZM527.397 243.073a7.3 7.3 0 0 1-9.632-3.735 7.305 7.305 0 0 1 3.737-9.633 7.31 7.31 0 0 1 9.636 3.736 7.306 7.306 0 0 1-3.741 9.632ZM593.468 189.144a7.307 7.307 0 1 1-5.895-13.372 7.307 7.307 0 0 1 5.895 13.372ZM615.712 229.883a7.303 7.303 0 0 1-9.63-3.734 7.304 7.304 0 0 1 3.734-9.635c3.692-1.63 8.004.045 9.636 3.739a7.311 7.311 0 0 1-3.74 9.63ZM572.391 273.74a7.306 7.306 0 0 1-5.898-13.367 7.302 7.302 0 0 1 9.632 3.734 7.306 7.306 0 0 1-3.734 9.633ZM666.074 295.712a7.31 7.31 0 0 1-9.636-3.735 7.307 7.307 0 0 1 3.741-9.63 7.302 7.302 0 0 1 9.63 3.732 7.308 7.308 0 0 1-3.735 9.633ZM685.423 196.089a7.305 7.305 0 1 1-5.896-13.367 7.305 7.305 0 0 1 9.632 3.736 7.302 7.302 0 0 1-3.736 9.631ZM730.305 199.954a7.303 7.303 0 0 1-9.63-3.734 7.306 7.306 0 1 1 13.369-5.896c1.627 3.689-.051 8.001-3.739 9.63ZM750.446 189.299a7.305 7.305 0 1 1-5.895-13.368c3.691-1.63 8.003.047 9.633 3.737a7.304 7.304 0 0 1-3.738 9.631ZM745.827 262.003a7.312 7.312 0 0 1-9.635-3.735 7.306 7.306 0 1 1 13.37-5.896 7.304 7.304 0 0 1-3.735 9.631ZM702.256 324.117a7.31 7.31 0 0 1-9.636-3.736 7.31 7.31 0 0 1 3.74-9.634c3.692-1.625 8.006.047 9.633 3.737a7.304 7.304 0 0 1-3.737 9.633Z" style="fill:#004bff;fill-rule:nonzero" transform="translate(-733.598 -80.329) scale(1.63358)"/><path d="M640.622 356.034c-3.694 1.628-8.009-.047-9.635-3.735a7.31 7.31 0 0 1 3.737-9.635 7.31 7.31 0 0 1 9.634 3.736 7.31 7.31 0 0 1-3.736 9.634ZM554.836 335.111a7.307 7.307 0 1 1 3.737-9.633 7.31 7.31 0 0 1-3.737 9.633ZM558.874 360.312a7.306 7.306 0 0 1-9.635-3.735 7.31 7.31 0 0 1 3.74-9.633 7.306 7.306 0 0 1 5.895 13.368ZM494.801 308.264a7.3 7.3 0 0 1-9.632-3.737 7.302 7.302 0 0 1 3.734-9.632 7.303 7.303 0 0 1 9.632 3.736 7.302 7.302 0 0 1-3.734 9.633ZM467.732 241.532a7.302 7.302 0 0 1-9.629-3.734 7.308 7.308 0 0 1 3.734-9.637c3.691-1.628 8.004.049 9.635 3.741a7.309 7.309 0 0 1-3.74 9.63ZM465.366 165.091a7.306 7.306 0 1 1-5.895-13.371 7.307 7.307 0 0 1 9.632 3.74 7.304 7.304 0 0 1-3.737 9.631ZM512.675 95.878a7.305 7.305 0 1 1-5.896-13.367 7.302 7.302 0 0 1 9.63 3.734c1.627 3.693-.043 8.006-3.734 9.633ZM613.104 222.731l-.369-.756 68.315-33.697.377.76-68.323 33.693Z" style="fill:#004bff;fill-rule:nonzero" transform="translate(-733.598 -80.329) scale(1.63358)"/><path d="m742.352 252.764-62.354-64.588.608-.587 62.356 64.592-.61.583ZM637.05 346.096l-.834.153-22.571-120.178.831-.158 22.574 120.183Z" style="fill:#004bff;fill-rule:nonzero" transform="translate(-733.598 -80.329) scale(1.63358)"/><path d="M612.736 366.395c-29.303 0-53.558-2.393-57.687-5.512a7.276 7.276 0 0 0 3.825-.571 7.273 7.273 0 0 0 3.707-3.671c10.165-1.893 28.822-3.162 50.155-3.162 6.714 0 13.164.125 19.167.357a7.324 7.324 0 0 0 5.774 2.821c.985 0 1.986-.2 2.945-.623.9-.397 1.68-.954 2.321-1.622 16.846 1.132 28.1 3.183 28.1 5.525 0 3.568-26.105 6.458-58.307 6.458Z" style="fill:#cad1e1;fill-rule:nonzero" transform="translate(-733.598 -80.329) scale(1.63358)"/><path d="M637.677 356.657a7.324 7.324 0 0 1-5.774-2.821c3.883.149 7.579.343 11.04.576a7.282 7.282 0 0 1-2.321 1.622 7.282 7.282 0 0 1-2.945.623ZM555.927 360.936c-.294 0-.588-.018-.878-.053-.409-.309-.62-.624-.62-.946 0-1.204 2.974-2.331 8.152-3.296a7.273 7.273 0 0 1-3.707 3.671 7.276 7.276 0 0 1-2.947.624Z" style="fill:#004bff;fill-rule:nonzero" transform="translate(-733.598 -80.329) scale(1.63358)"/></svg>